<svg xmlns="http://www.w3.org/2000/svg" xmlns:xlink="http://www.w3.org/1999/xlink" width="860" height="514.2"><rect width="860" height="514.2" rx="5" ry="5" class="a"/><svg y="0%" x="0%"><circle cx="20" cy="20" r="6" fill="#ff5f58"/><circle cx="40" cy="20" r="6" fill="#ffbd2e"/><circle cx="60" cy="20" r="6" fill="#18c132"/></svg><svg height="434.2" viewBox="0 0 80 43.42" width="800" x="25" xmlns="http://www.w3.org/2000/svg" xmlns:xlink="http://www.w3.org/1999/xlink" y="60"><style>@keyframes h{0%{transform:translateX(0)}.4%{transform:translateX(-160px)}8%{transform:translateX(-240px)}9.3%{transform:translateX(-320px)}10.5%{transform:translateX(-400px)}11.7%{transform:translateX(-480px)}13%{transform:translateX(-560px)}14.2%{transform:translateX(-640px)}15.5%{transform:translateX(-720px)}16.7%{transform:translateX(-800px)}18%{transform:translateX(-880px)}19.2%{transform:translateX(-960px)}25%{transform:translateX(-1040px)}25.1%{transform:translateX(-1200px)}29.7%{transform:translateX(-1280px)}37.3%{transform:translateX(-1360px)}38.6%{transform:translateX(-1440px)}39.9%{transform:translateX(-1520px)}41.1%{transform:translateX(-1600px)}42.3%{transform:translateX(-1680px)}43.6%{transform:translateX(-1760px)}44.8%{transform:translateX(-1840px)}46.1%{transform:translateX(-1920px)}47.7%{transform:translateX(-2000px)}49%{transform:translateX(-2080px)}50.2%{transform:translateX(-2160px)}51.4%{transform:translateX(-2240px)}52.7%{transform:translateX(-2320px)}53.9%{transform:translateX(-2400px)}55.1%{transform:translateX(-2480px)}56.4%{transform:translateX(-2560px)}57.6%{transform:translateX(-2640px)}58.9%{transform:translateX(-2720px)}60.1%{transform:translateX(-2800px)}61.3%{transform:translateX(-2880px)}62.6%{transform:translateX(-2960px)}63.8%{transform:translateX(-3040px)}65%{transform:translateX(-3120px)}66.3%{transform:translateX(-3200px)}67.5%{transform:translateX(-3280px)}68.7%{transform:translateX(-3360px)}70%{transform:translateX(-3440px)}71.2%{transform:translateX(-3520px)}77%{transform:translateX(-3600px)}77.1%{transform:translateX(-3840px)}84.7%{transform:translateX(-3920px)}92.4%{transform:translateX(-4000px)}to{transform:translateX(-4080px)}}.a{fill:#282d35}.f{fill:#b9c0cb;white-space:pre}</style><g font-family="Monaco,Consolas,Menlo,'Bitstream Vera Sans Mono','Powerline Symbols',monospace" font-size="1.67"><defs><symbol id="1"><text y="1.67" class="f">$</text></symbol><symbol id="2"><text y="1.67" class="f">$</text><text x="2.004" y="1.67" class="f">d</text></symbol><symbol id="3"><text y="1.67" class="f">$</text><text x="2.004" y="1.67" class="f">do</text></symbol><symbol id="4"><text y="1.67" class="f">$</text><text x="2.004" y="1.67" class="f">dot</text></symbol><symbol id="5"><text y="1.67" class="f">$</text><text x="2.004" y="1.67" class="f">dotg</text></symbol><symbol id="6"><text y="1.67" class="f">$</text><text x="2.004" y="1.67" class="f">dotgh</text></symbol><symbol id="7"><text y="1.67" class="f">$</text><text x="2.004" y="1.67" class="f">dotgh</text><text x="8.016" y="1.67" class="f">list</text></symbol><symbol id="8"><text y="1.67" class="f">Available</text><text x="10.02" y="1.67" class="f">templates:</text></symbol><symbol id="9"><text x="2.004" y="1.67" class="f">bicep-mslearn-mcp</text></symbol><symbol id="10"><text x="2.004" y="1.67" class="f">node-playwright-mcp</text></symbol><symbol id="11"><text x="2.004" y="1.67" class="f">python</text></symbol><symbol id="12"><text y="1.67" class="f">3</text><text x="2.004" y="1.67" class="f">template(s)</text><text x="14.028" y="1.67" class="f">found</text></symbol><symbol id="13"><text y="1.67" class="f">$</text><text x="2.004" y="1.67" class="f">dotgh</text><text x="8.016" y="1.67" class="f">pull</text></symbol><symbol id="14"><text y="1.67" class="f">$</text><text x="2.004" y="1.67" class="f">dotgh</text><text x="8.016" y="1.67" class="f">pull</text><text x="13.026" y="1.67" class="f">bicep-mslearn-mcp</text></symbol><symbol id="15"><text y="1.67" class="f">Pulling</text><text x="8.016" y="1.67" class="f">template</text><text x="17.034" y="1.67" class="f">&apos;bicep-mslearn-mcp&apos;...</text></symbol><symbol id="16"><text x="2.004" y="1.67" class="f">✓</text><text x="4.008" y="1.67" class="f">AGENTS.md</text></symbol><symbol id="17"><text x="2.004" y="1.67" class="f">✓</text><text x="4.008" y="1.67" class="f">.github/copilot-instructions.md</text></symbol><symbol id="18"><text x="2.004" y="1.67" class="f">✓</text><text x="4.008" y="1.67" class="f">.github/instructions/bicep.instructions.md</text></symbol><symbol id="19"><text x="2.004" y="1.67" class="f">✓</text><text x="4.008" y="1.67" class="f">.github/prompts/spec.prompt.md</text></symbol><symbol id="20"><text x="2.004" y="1.67" class="f">✓</text><text x="4.008" y="1.67" class="f">.github/prompts/plan.prompt.md</text></symbol><symbol id="21"><text x="2.004" y="1.67" class="f">✓</text><text x="4.008" y="1.67" class="f">.github/prompts/refactor.prompt.md</text></symbol><symbol id="22"><text x="2.004" y="1.67" class="f">✓</text><text x="4.008" y="1.67" class="f">.vscode/mcp.json</text></symbol><symbol id="23"><text y="1.67" class="f">Template</text><text x="9.018" y="1.67" class="f">applied</text><text x="17.034" y="1.67" class="f">successfully!</text></symbol><symbol id="a"><path fill="transparent" d="M0 0h80v21H0z"/></symbol></defs><path class="a" d="M0 0h80v43.42H0z"/><g style="animation-duration:6.584952s;animation-iteration-count:infinite;animation-name:h;animation-timing-function:steps(1,end)"><svg width="4160"><svg><use xlink:href="#a"/></svg><svg x="80"><use xlink:href="#a"/></svg><svg x="160"><use xlink:href="#a"/><use xlink:href="#1"/></svg><svg x="240"><use xlink:href="#a"/><use xlink:href="#2"/></svg><svg x="320"><use xlink:href="#a"/><use xlink:href="#3"/></svg><svg x="400"><use xlink:href="#a"/><use xlink:href="#4"/></svg><svg x="480"><use xlink:href="#a"/><use xlink:href="#5"/></svg><svg x="560"><use xlink:href="#a"/><use xlink:href="#6"/></svg><svg x="640"><use xlink:href="#a"/><use xlink:href="#6"/></svg><svg x="720"><use xlink:href="#a"/><text y="1.67" class="f">$</text><text x="2.004" y="1.67" class="f">dotgh</text><text x="8.016" y="1.67" class="f">l</text></svg><svg x="800"><use xlink:href="#a"/><text y="1.67" class="f">$</text><text x="2.004" y="1.67" class="f">dotgh</text><text x="8.016" y="1.67" class="f">li</text></svg><svg x="880"><use xlink:href="#a"/><text y="1.67" class="f">$</text><text x="2.004" y="1.67" class="f">dotgh</text><text x="8.016" y="1.67" class="f">lis</text></svg><svg x="960"><use xlink:href="#a"/><use xlink:href="#7"/></svg><svg x="1040"><use xlink:href="#a"/><use xlink:href="#7"/></svg><svg x="1120"><use xlink:href="#a"/><use xlink:href="#7"/><use xlink:href="#8" y="2.171"/><use xlink:href="#9" y="4.342"/><use xlink:href="#10" y="6.513"/><use xlink:href="#11" y="8.684"/><use xlink:href="#12" y="13.026"/></svg><svg x="1200"><use xlink:href="#a"/><use xlink:href="#7"/><use xlink:href="#8" y="2.171"/><use xlink:href="#9" y="4.342"/><use xlink:href="#10" y="6.513"/><use xlink:href="#11" y="8.684"/><use xlink:href="#12" y="13.026"/></svg><svg x="1280"><use xlink:href="#a"/><use xlink:href="#7"/><use xlink:href="#8" y="2.171"/><use xlink:href="#9" y="4.342"/><use xlink:href="#10" y="6.513"/><use xlink:href="#11" y="8.684"/><use xlink:href="#12" y="13.026"/><use xlink:href="#1" y="19.539"/></svg><svg x="1360"><use xlink:href="#a"/><use xlink:href="#7"/><use xlink:href="#8" y="2.171"/><use xlink:href="#9" y="4.342"/><use xlink:href="#10" y="6.513"/><use xlink:href="#11" y="8.684"/><use xlink:href="#12" y="13.026"/><use xlink:href="#2" y="19.539"/></svg><svg x="1440"><use xlink:href="#a"/><use xlink:href="#7"/><use xlink:href="#8" y="2.171"/><use xlink:href="#9" y="4.342"/><use xlink:href="#10" y="6.513"/><use xlink:href="#11" y="8.684"/><use xlink:href="#12" y="13.026"/><use xlink:href="#3" y="19.539"/></svg><svg x="1520"><use xlink:href="#a"/><use xlink:href="#7"/><use xlink:href="#8" y="2.171"/><use xlink:href="#9" y="4.342"/><use xlink:href="#10" y="6.513"/><use xlink:href="#11" y="8.684"/><use xlink:href="#12" y="13.026"/><use xlink:href="#4" y="19.539"/></svg><svg x="1600"><use xlink:href="#a"/><use xlink:href="#7"/><use xlink:href="#8" y="2.171"/><use xlink:href="#9" y="4.342"/><use xlink:href="#10" y="6.513"/><use xlink:href="#11" y="8.684"/><use xlink:href="#12" y="13.026"/><use xlink:href="#5" y="19.539"/></svg><svg x="1680"><use xlink:href="#a"/><use xlink:href="#7"/><use xlink:href="#8" y="2.171"/><use xlink:href="#9" y="4.342"/><use xlink:href="#10" y="6.513"/><use xlink:href="#11" y="8.684"/><use xlink:href="#12" y="13.026"/><use xlink:href="#6" y="19.539"/></svg><svg x="1760"><use xlink:href="#a"/><use xlink:href="#7"/><use xlink:href="#8" y="2.171"/><use xlink:href="#9" y="4.342"/><use xlink:href="#10" y="6.513"/><use xlink:href="#11" y="8.684"/><use xlink:href="#12" y="13.026"/><use xlink:href="#6" y="19.539"/></svg><svg x="1840"><use xlink:href="#a"/><use xlink:href="#7"/><use xlink:href="#8" y="2.171"/><use xlink:href="#9" y="4.342"/><use xlink:href="#10" y="6.513"/><use xlink:href="#11" y="8.684"/><use xlink:href="#12" y="13.026"/><text y="21.209" class="f">$</text><text x="2.004" y="21.209" class="f">dotgh</text><text x="8.016" y="21.209" class="f">p</text></svg><svg x="1920"><use xlink:href="#a"/><use xlink:href="#7"/><use xlink:href="#8" y="2.171"/><use xlink:href="#9" y="4.342"/><use xlink:href="#10" y="6.513"/><use xlink:href="#11" y="8.684"/><use xlink:href="#12" y="13.026"/><text y="21.209" class="f">$</text><text x="2.004" y="21.209" class="f">dotgh</text><text x="8.016" y="21.209" class="f">pu</text></svg><svg x="2000"><use xlink:href="#a"/><use xlink:href="#7"/><use xlink:href="#8" y="2.171"/><use xlink:href="#9" y="4.342"/><use xlink:href="#10" y="6.513"/><use xlink:href="#11" y="8.684"/><use xlink:href="#12" y="13.026"/><text y="21.209" class="f">$</text><text x="2.004" y="21.209" class="f">dotgh</text><text x="8.016" y="21.209" class="f">pul</text></svg><svg x="2080"><use xlink:href="#a"/><use xlink:href="#7"/><use xlink:href="#8" y="2.171"/><use xlink:href="#9" y="4.342"/><use xlink:href="#10" y="6.513"/><use xlink:href="#11" y="8.684"/><use xlink:href="#12" y="13.026"/><use xlink:href="#13" y="19.539"/></svg><svg x="2160"><use xlink:href="#a"/><use xlink:href="#7"/><use xlink:href="#8" y="2.171"/><use xlink:href="#9" y="4.342"/><use xlink:href="#10" y="6.513"/><use xlink:href="#11" y="8.684"/><use xlink:href="#12" y="13.026"/><use xlink:href="#13" y="19.539"/></svg><svg x="2240"><use xlink:href="#a"/><use xlink:href="#7"/><use xlink:href="#8" y="2.171"/><use xlink:href="#9" y="4.342"/><use xlink:href="#10" y="6.513"/><use xlink:href="#11" y="8.684"/><use xlink:href="#12" y="13.026"/><text y="21.209" class="f">$</text><text x="2.004" y="21.209" class="f">dotgh</text><text x="8.016" y="21.209" class="f">pull</text><text x="13.026" y="21.209" class="f">b</text></svg><svg x="2320"><use xlink:href="#a"/><use xlink:href="#7"/><use xlink:href="#8" y="2.171"/><use xlink:href="#9" y="4.342"/><use xlink:href="#10" y="6.513"/><use xlink:href="#11" y="8.684"/><use xlink:href="#12" y="13.026"/><text y="21.209" class="f">$</text><text x="2.004" y="21.209" class="f">dotgh</text><text x="8.016" y="21.209" class="f">pull</text><text x="13.026" y="21.209" class="f">bi</text></svg><svg x="2400"><use xlink:href="#a"/><use xlink:href="#7"/><use xlink:href="#8" y="2.171"/><use xlink:href="#9" y="4.342"/><use xlink:href="#10" y="6.513"/><use xlink:href="#11" y="8.684"/><use xlink:href="#12" y="13.026"/><text y="21.209" class="f">$</text><text x="2.004" y="21.209" class="f">dotgh</text><text x="8.016" y="21.209" class="f">pull</text><text x="13.026" y="21.209" class="f">bic</text></svg><svg x="2480"><use xlink:href="#a"/><use xlink:href="#7"/><use xlink:href="#8" y="2.171"/><use xlink:href="#9" y="4.342"/><use xlink:href="#10" y="6.513"/><use xlink:href="#11" y="8.684"/><use xlink:href="#12" y="13.026"/><text y="21.209" class="f">$</text><text x="2.004" y="21.209" class="f">dotgh</text><text x="8.016" y="21.209" class="f">pull</text><text x="13.026" y="21.209" class="f">bice</text></svg><svg x="2560"><use xlink:href="#a"/><use xlink:href="#7"/><use xlink:href="#8" y="2.171"/><use xlink:href="#9" y="4.342"/><use xlink:href="#10" y="6.513"/><use xlink:href="#11" y="8.684"/><use xlink:href="#12" y="13.026"/><text y="21.209" class="f">$</text><text x="2.004" y="21.209" class="f">dotgh</text><text x="8.016" y="21.209" class="f">pull</text><text x="13.026" y="21.209" class="f">bicep</text></svg><svg x="2640"><use xlink:href="#a"/><use xlink:href="#7"/><use xlink:href="#8" y="2.171"/><use xlink:href="#9" y="4.342"/><use xlink:href="#10" y="6.513"/><use xlink:href="#11" y="8.684"/><use xlink:href="#12" y="13.026"/><text y="21.209" class="f">$</text><text x="2.004" y="21.209" class="f">dotgh</text><text x="8.016" y="21.209" class="f">pull</text><text x="13.026" y="21.209" class="f">bicep-</text></svg><svg x="2720"><use xlink:href="#a"/><use xlink:href="#7"/><use xlink:href="#8" y="2.171"/><use xlink:href="#9" y="4.342"/><use xlink:href="#10" y="6.513"/><use xlink:href="#11" y="8.684"/><use xlink:href="#12" y="13.026"/><text y="21.209" class="f">$</text><text x="2.004" y="21.209" class="f">dotgh</text><text x="8.016" y="21.209" class="f">pull</text><text x="13.026" y="21.209" class="f">bicep-m</text></svg><svg x="2800"><use xlink:href="#a"/><use xlink:href="#7"/><use xlink:href="#8" y="2.171"/><use xlink:href="#9" y="4.342"/><use xlink:href="#10" y="6.513"/><use xlink:href="#11" y="8.684"/><use xlink:href="#12" y="13.026"/><text y="21.209" class="f">$</text><text x="2.004" y="21.209" class="f">dotgh</text><text x="8.016" y="21.209" class="f">pull</text><text x="13.026" y="21.209" class="f">bicep-ms</text></svg><svg x="2880"><use xlink:href="#a"/><use xlink:href="#7"/><use xlink:href="#8" y="2.171"/><use xlink:href="#9" y="4.342"/><use xlink:href="#10" y="6.513"/><use xlink:href="#11" y="8.684"/><use xlink:href="#12" y="13.026"/><text y="21.209" class="f">$</text><text x="2.004" y="21.209" class="f">dotgh</text><text x="8.016" y="21.209" class="f">pull</text><text x="13.026" y="21.209" class="f">bicep-msl</text></svg><svg x="2960"><use xlink:href="#a"/><use xlink:href="#7"/><use xlink:href="#8" y="2.171"/><use xlink:href="#9" y="4.342"/><use xlink:href="#10" y="6.513"/><use xlink:href="#11" y="8.684"/><use xlink:href="#12" y="13.026"/><text y="21.209" class="f">$</text><text x="2.004" y="21.209" class="f">dotgh</text><text x="8.016" y="21.209" class="f">pull</text><text x="13.026" y="21.209" class="f">bicep-msle</text></svg><svg x="3040"><use xlink:href="#a"/><use xlink:href="#7"/><use xlink:href="#8" y="2.171"/><use xlink:href="#9" y="4.342"/><use xlink:href="#10" y="6.513"/><use xlink:href="#11" y="8.684"/><use xlink:href="#12" y="13.026"/><text y="21.209" class="f">$</text><text x="2.004" y="21.209" class="f">dotgh</text><text x="8.016" y="21.209" class="f">pull</text><text x="13.026" y="21.209" class="f">bicep-mslea</text></svg><svg x="3120"><use xlink:href="#a"/><use xlink:href="#7"/><use xlink:href="#8" y="2.171"/><use xlink:href="#9" y="4.342"/><use xlink:href="#10" y="6.513"/><use xlink:href="#11" y="8.684"/><use xlink:href="#12" y="13.026"/><text y="21.209" class="f">$</text><text x="2.004" y="21.209" class="f">dotgh</text><text x="8.016" y="21.209" class="f">pull</text><text x="13.026" y="21.209" class="f">bicep-mslear</text></svg><svg x="3200"><use xlink:href="#a"/><use xlink:href="#7"/><use xlink:href="#8" y="2.171"/><use xlink:href="#9" y="4.342"/><use xlink:href="#10" y="6.513"/><use xlink:href="#11" y="8.684"/><use xlink:href="#12" y="13.026"/><text y="21.209" class="f">$</text><text x="2.004" y="21.209" class="f">dotgh</text><text x="8.016" y="21.209" class="f">pull</text><text x="13.026" y="21.209" class="f">bicep-mslearn</text></svg><svg x="3280"><use xlink:href="#a"/><use xlink:href="#7"/><use xlink:href="#8" y="2.171"/><use xlink:href="#9" y="4.342"/><use xlink:href="#10" y="6.513"/><use xlink:href="#11" y="8.684"/><use xlink:href="#12" y="13.026"/><text y="21.209" class="f">$</text><text x="2.004" y="21.209" class="f">dotgh</text><text x="8.016" y="21.209" class="f">pull</text><text x="13.026" y="21.209" class="f">bicep-mslearn-</text></svg><svg x="3360"><use xlink:href="#a"/><use xlink:href="#7"/><use xlink:href="#8" y="2.171"/><use xlink:href="#9" y="4.342"/><use xlink:href="#10" y="6.513"/><use xlink:href="#11" y="8.684"/><use xlink:href="#12" y="13.026"/><text y="21.209" class="f">$</text><text x="2.004" y="21.209" class="f">dotgh</text><text x="8.016" y="21.209" class="f">pull</text><text x="13.026" y="21.209" class="f">bicep-mslearn-m</text></svg><svg x="3440"><use xlink:href="#a"/><use xlink:href="#7"/><use xlink:href="#8" y="2.171"/><use xlink:href="#9" y="4.342"/><use xlink:href="#10" y="6.513"/><use xlink:href="#11" y="8.684"/><use xlink:href="#12" y="13.026"/><text y="21.209" class="f">$</text><text x="2.004" y="21.209" class="f">dotgh</text><text x="8.016" y="21.209" class="f">pull</text><text x="13.026" y="21.209" class="f">bicep-mslearn-mc</text></svg><svg x="3520"><use xlink:href="#a"/><use xlink:href="#7"/><use xlink:href="#8" y="2.171"/><use xlink:href="#9" y="4.342"/><use xlink:href="#10" y="6.513"/><use xlink:href="#11" y="8.684"/><use xlink:href="#12" y="13.026"/><use xlink:href="#14" y="19.539"/></svg><svg x="3600"><use xlink:href="#a"/><use xlink:href="#7"/><use xlink:href="#8" y="2.171"/><use xlink:href="#9" y="4.342"/><use xlink:href="#10" y="6.513"/><use xlink:href="#11" y="8.684"/><use xlink:href="#12" y="13.026"/><use xlink:href="#14" y="19.539"/></svg><svg x="3680"><use xlink:href="#a"/><use xlink:href="#7"/><use xlink:href="#8" y="2.171"/><use xlink:href="#9" y="4.342"/><use xlink:href="#10" y="6.513"/><use xlink:href="#11" y="8.684"/><use xlink:href="#12" y="13.026"/><use xlink:href="#14" y="19.539"/><use xlink:href="#15" y="21.71"/><use xlink:href="#16" y="23.881"/><use xlink:href="#17" y="26.052"/><use xlink:href="#18" y="28.223"/><use xlink:href="#19" y="30.394"/></svg><svg x="3760"><use xlink:href="#a"/><use xlink:href="#8"/><use xlink:href="#9" y="2.171"/><use xlink:href="#10" y="4.342"/><use xlink:href="#11" y="6.513"/><use xlink:href="#12" y="10.855"/><use xlink:href="#14" y="17.368"/><use xlink:href="#15" y="19.539"/><use xlink:href="#16" y="21.71"/><use xlink:href="#17" y="23.881"/><use xlink:href="#18" y="26.052"/><use xlink:href="#19" y="28.223"/><use xlink:href="#20" y="30.394"/><use xlink:href="#21" y="32.565"/><use xlink:href="#22" y="34.736"/><use xlink:href="#23" y="39.078"/></svg><svg x="3840"><use xlink:href="#a"/><use xlink:href="#9"/><use xlink:href="#10" y="2.171"/><use xlink:href="#11" y="4.342"/><use xlink:href="#12" y="8.684"/><use xlink:href="#14" y="15.197"/><use xlink:href="#15" y="17.368"/><use xlink:href="#16" y="19.539"/><use xlink:href="#17" y="21.71"/><use xlink:href="#18" y="23.881"/><use xlink:href="#19" y="26.052"/><use xlink:href="#20" y="28.223"/><use xlink:href="#21" y="30.394"/><use xlink:href="#22" y="32.565"/><use xlink:href="#23" y="36.907"/><use xlink:href="#1" y="43.42"/></svg><svg x="3920"><use xlink:href="#a"/><use xlink:href="#9"/><use xlink:href="#10" y="2.171"/><use xlink:href="#11" y="4.342"/><use xlink:href="#12" y="8.684"/><use xlink:href="#14" y="15.197"/><use xlink:href="#15" y="17.368"/><use xlink:href="#16" y="19.539"/><use xlink:href="#17" y="21.71"/><use xlink:href="#18" y="23.881"/><use xlink:href="#19" y="26.052"/><use xlink:href="#20" y="28.223"/><use xlink:href="#21" y="30.394"/><use xlink:href="#22" y="32.565"/><use xlink:href="#23" y="36.907"/><use xlink:href="#1" y="43.42"/></svg><svg x="4000"><use xlink:href="#a"/><use xlink:href="#9"/><use xlink:href="#10" y="2.171"/><use xlink:href="#11" y="4.342"/><use xlink:href="#12" y="8.684"/><use xlink:href="#14" y="15.197"/><use xlink:href="#15" y="17.368"/><use xlink:href="#16" y="19.539"/><use xlink:href="#17" y="21.71"/><use xlink:href="#18" y="23.881"/><use xlink:href="#19" y="26.052"/><use xlink:href="#20" y="28.223"/><use xlink:href="#21" y="30.394"/><use xlink:href="#22" y="32.565"/><use xlink:href="#23" y="36.907"/><use xlink:href="#1" y="43.42"/></svg><svg x="4080"><use xlink:href="#a"/><use xlink:href="#9"/><use xlink:href="#10" y="2.171"/><use xlink:href="#11" y="4.342"/><use xlink:href="#12" y="8.684"/><use xlink:href="#14" y="15.197"/><use xlink:href="#15" y="17.368"/><use xlink:href="#16" y="19.539"/><use xlink:href="#17" y="21.71"/><use xlink:href="#18" y="23.881"/><use xlink:href="#19" y="26.052"/><use xlink:href="#20" y="28.223"/><use xlink:href="#21" y="30.394"/><use xlink:href="#22" y="32.565"/><use xlink:href="#23" y="36.907"/><use xlink:href="#1" y="43.42"/></svg></svg></g></g></svg></svg>