<svg xmlns="http://www.w3.org/2000/svg" xmlns:xlink="http://www.w3.org/1999/xlink" width="860" height="601.04"><rect width="860" height="601.04" rx="5" ry="5" class="a"/><svg y="0%" x="0%"><circle cx="20" cy="20" r="6" fill="#ff5f58"/><circle cx="40" cy="20" r="6" fill="#ffbd2e"/><circle cx="60" cy="20" r="6" fill="#18c132"/></svg><svg height="521.04" viewBox="0 0 80 52.104" width="800" x="25" xmlns="http://www.w3.org/2000/svg" xmlns:xlink="http://www.w3.org/1999/xlink" y="60"><style>@keyframes i{0%{transform:translateX(0)}.3%{transform:translateX(-160px)}10.2%{transform:translateX(-240px)}11.8%{transform:translateX(-320px)}13.4%{transform:translateX(-400px)}15%{transform:translateX(-480px)}16.6%{transform:translateX(-560px)}18.2%{transform:translateX(-640px)}19.9%{transform:translateX(-720px)}21.5%{transform:translateX(-800px)}23.1%{transform:translateX(-880px)}24.7%{transform:translateX(-960px)}32.2%{transform:translateX(-1040px)}32.7%{transform:translateX(-1120px)}38.7%{transform:translateX(-1200px)}48.6%{transform:translateX(-1280px)}50.2%{transform:translateX(-1360px)}51.8%{transform:translateX(-1440px)}53.4%{transform:translateX(-1520px)}55%{transform:translateX(-1600px)}56.6%{transform:translateX(-1680px)}58.2%{transform:translateX(-1760px)}59.8%{transform:translateX(-1840px)}61.4%{transform:translateX(-1920px)}63%{transform:translateX(-2000px)}64.6%{transform:translateX(-2080px)}66.2%{transform:translateX(-2160px)}67.8%{transform:translateX(-2240px)}69.5%{transform:translateX(-2320px)}71.1%{transform:translateX(-2400px)}72.7%{transform:translateX(-2480px)}74.3%{transform:translateX(-2560px)}75.9%{transform:translateX(-2640px)}77.5%{transform:translateX(-2720px)}79.1%{transform:translateX(-2800px)}80.7%{transform:translateX(-2880px)}82.3%{transform:translateX(-2960px)}84%{transform:translateX(-3040px)}85.6%{transform:translateX(-3120px)}87.2%{transform:translateX(-3200px)}88.8%{transform:translateX(-3280px)}90.4%{transform:translateX(-3360px)}92%{transform:translateX(-3440px)}99.5%{transform:translateX(-3520px)}to{transform:translateX(-3680px)}}.a{fill:#282d35}.f{fill:#b9c0cb;white-space:pre}</style><g font-family="Monaco,Consolas,Menlo,'Bitstream Vera Sans Mono','Powerline Symbols',monospace" font-size="1.67"><defs><symbol id="1"><text y="1.67" class="f">$</text></symbol><symbol id="2"><text y="1.67" class="f">$</text><text x="2.004" y="1.67" class="f">d</text></symbol><symbol id="3"><text y="1.67" class="f">$</text><text x="2.004" y="1.67" class="f">do</text></symbol><symbol id="4"><text y="1.67" class="f">$</text><text x="2.004" y="1.67" class="f">dot</text></symbol><symbol id="5"><text y="1.67" class="f">$</text><text x="2.004" y="1.67" class="f">dotg</text></symbol><symbol id="6"><text y="1.67" class="f">$</text><text x="2.004" y="1.67" class="f">dotgh</text></symbol><symbol id="7"><text y="1.67" class="f">$</text><text x="2.004" y="1.67" class="f">dotgh</text><text x="8.016" y="1.67" class="f">list</text></symbol><symbol id="8"><text y="1.67" class="f">Available</text><text x="10.02" y="1.67" class="f">templates:</text></symbol><symbol id="9"><text x="2.004" y="1.67" class="f">bicep-mslearn-mcp</text></symbol><symbol id="10"><text x="2.004" y="1.67" class="f">node-playwright-mcp</text></symbol><symbol id="11"><text x="2.004" y="1.67" class="f">python</text></symbol><symbol id="12"><text y="1.67" class="f">3</text><text x="2.004" y="1.67" class="f">template(s)</text><text x="14.028" y="1.67" class="f">found</text></symbol><symbol id="13"><text y="1.67" class="f">$</text><text x="2.004" y="1.67" class="f">dotgh</text><text x="8.016" y="1.67" class="f">pull</text></symbol><symbol id="14"><text y="1.67" class="f">$</text><text x="2.004" y="1.67" class="f">dotgh</text><text x="8.016" y="1.67" class="f">pull</text><text x="13.026" y="1.67" class="f">bicep-mslearn-mcp</text></symbol><symbol id="15"><text y="1.67" class="f">Pulling</text><text x="8.016" y="1.67" class="f">template</text><text x="17.034" y="1.67" class="f">&apos;bicep-mslearn-mcp&apos;...</text></symbol><symbol id="16"><text x="2.004" y="1.67" class="f">✓</text><text x="4.008" y="1.67" class="f">AGENTS.md</text></symbol><symbol id="17"><text x="2.004" y="1.67" class="f">✓</text><text x="4.008" y="1.67" class="f">.github/copilot-instructions.md</text></symbol><symbol id="18"><text x="2.004" y="1.67" class="f">✓</text><text x="4.008" y="1.67" class="f">.github/instructions/bicep.instructions.md</text></symbol><symbol id="19"><text x="2.004" y="1.67" class="f">✓</text><text x="4.008" y="1.67" class="f">.github/prompts/spec.prompt.md</text></symbol><symbol id="20"><text x="2.004" y="1.67" class="f">✓</text><text x="4.008" y="1.67" class="f">.github/prompts/plan.prompt.md</text></symbol><symbol id="a"><path fill="transparent" d="M0 0h80v25H0z"/></symbol><symbol id="b"><path fill="#6f7683" d="M0 0h1.102v2.171H0z"/></symbol></defs><path class="a" d="M0 0h80v52.104H0z"/><g style="animation-duration:5.065363s;animation-iteration-count:infinite;animation-name:i;animation-timing-function:steps(1,end)"><svg width="3760"><svg><use xlink:href="#a"/><use xlink:href="#b" x="-.004"/></svg><svg x="80"><use xlink:href="#a"/><use xlink:href="#b" x="-.004"/></svg><svg x="160"><use xlink:href="#a"/><use xlink:href="#b" x="1.996"/><use xlink:href="#1"/></svg><svg x="240"><use xlink:href="#a"/><use xlink:href="#b" x="2.996"/><use xlink:href="#2"/></svg><svg x="320"><use xlink:href="#a"/><use xlink:href="#b" x="3.996"/><use xlink:href="#3"/></svg><svg x="400"><use xlink:href="#a"/><use xlink:href="#b" x="4.996"/><use xlink:href="#4"/></svg><svg x="480"><use xlink:href="#a"/><use xlink:href="#b" x="5.996"/><use xlink:href="#5"/></svg><svg x="560"><use xlink:href="#a"/><use xlink:href="#b" x="6.996"/><use xlink:href="#6"/></svg><svg x="640"><use xlink:href="#a"/><use xlink:href="#b" x="7.996"/><use xlink:href="#6"/></svg><svg x="720"><use xlink:href="#a"/><use xlink:href="#b" x="8.996"/><text y="1.67" class="f">$</text><text x="2.004" y="1.67" class="f">dotgh</text><text x="8.016" y="1.67" class="f">l</text></svg><svg x="800"><use xlink:href="#a"/><use xlink:href="#b" x="9.996"/><text y="1.67" class="f">$</text><text x="2.004" y="1.67" class="f">dotgh</text><text x="8.016" y="1.67" class="f">li</text></svg><svg x="880"><use xlink:href="#a"/><use xlink:href="#b" x="10.996"/><text y="1.67" class="f">$</text><text x="2.004" y="1.67" class="f">dotgh</text><text x="8.016" y="1.67" class="f">lis</text></svg><svg x="960"><use xlink:href="#a"/><use xlink:href="#b" x="11.996"/><use xlink:href="#7"/></svg><svg x="1040"><use xlink:href="#a"/><use xlink:href="#b" x="-.004" y="2.146"/><use xlink:href="#7"/></svg><svg x="1120"><use xlink:href="#a"/><use xlink:href="#b" x="-.004" y="17.343"/><use xlink:href="#7"/><use xlink:href="#8" y="2.171"/><use xlink:href="#9" y="4.342"/><use xlink:href="#10" y="6.513"/><use xlink:href="#11" y="8.684"/><use xlink:href="#12" y="13.026"/></svg><svg x="1200"><use xlink:href="#a"/><use xlink:href="#b" x="1.996" y="19.514"/><use xlink:href="#7"/><use xlink:href="#8" y="2.171"/><use xlink:href="#9" y="4.342"/><use xlink:href="#10" y="6.513"/><use xlink:href="#11" y="8.684"/><use xlink:href="#12" y="13.026"/><use xlink:href="#1" y="19.539"/></svg><svg x="1280"><use xlink:href="#a"/><use xlink:href="#b" x="2.996" y="19.514"/><use xlink:href="#7"/><use xlink:href="#8" y="2.171"/><use xlink:href="#9" y="4.342"/><use xlink:href="#10" y="6.513"/><use xlink:href="#11" y="8.684"/><use xlink:href="#12" y="13.026"/><use xlink:href="#2" y="19.539"/></svg><svg x="1360"><use xlink:href="#a"/><use xlink:href="#b" x="3.996" y="19.514"/><use xlink:href="#7"/><use xlink:href="#8" y="2.171"/><use xlink:href="#9" y="4.342"/><use xlink:href="#10" y="6.513"/><use xlink:href="#11" y="8.684"/><use xlink:href="#12" y="13.026"/><use xlink:href="#3" y="19.539"/></svg><svg x="1440"><use xlink:href="#a"/><use xlink:href="#b" x="4.996" y="19.514"/><use xlink:href="#7"/><use xlink:href="#8" y="2.171"/><use xlink:href="#9" y="4.342"/><use xlink:href="#10" y="6.513"/><use xlink:href="#11" y="8.684"/><use xlink:href="#12" y="13.026"/><use xlink:href="#4" y="19.539"/></svg><svg x="1520"><use xlink:href="#a"/><use xlink:href="#b" x="5.996" y="19.514"/><use xlink:href="#7"/><use xlink:href="#8" y="2.171"/><use xlink:href="#9" y="4.342"/><use xlink:href="#10" y="6.513"/><use xlink:href="#11" y="8.684"/><use xlink:href="#12" y="13.026"/><use xlink:href="#5" y="19.539"/></svg><svg x="1600"><use xlink:href="#a"/><use xlink:href="#b" x="6.996" y="19.514"/><use xlink:href="#7"/><use xlink:href="#8" y="2.171"/><use xlink:href="#9" y="4.342"/><use xlink:href="#10" y="6.513"/><use xlink:href="#11" y="8.684"/><use xlink:href="#12" y="13.026"/><use xlink:href="#6" y="19.539"/></svg><svg x="1680"><use xlink:href="#a"/><use xlink:href="#b" x="7.996" y="19.514"/><use xlink:href="#7"/><use xlink:href="#8" y="2.171"/><use xlink:href="#9" y="4.342"/><use xlink:href="#10" y="6.513"/><use xlink:href="#11" y="8.684"/><use xlink:href="#12" y="13.026"/><use xlink:href="#6" y="19.539"/></svg><svg x="1760"><use xlink:href="#a"/><use xlink:href="#b" x="8.996" y="19.514"/><use xlink:href="#7"/><use xlink:href="#8" y="2.171"/><use xlink:href="#9" y="4.342"/><use xlink:href="#10" y="6.513"/><use xlink:href="#11" y="8.684"/><use xlink:href="#12" y="13.026"/><text y="21.209" class="f">$</text><text x="2.004" y="21.209" class="f">dotgh</text><text x="8.016" y="21.209" class="f">p</text></svg><svg x="1840"><use xlink:href="#a"/><use xlink:href="#b" x="9.996" y="19.514"/><use xlink:href="#7"/><use xlink:href="#8" y="2.171"/><use xlink:href="#9" y="4.342"/><use xlink:href="#10" y="6.513"/><use xlink:href="#11" y="8.684"/><use xlink:href="#12" y="13.026"/><text y="21.209" class="f">$</text><text x="2.004" y="21.209" class="f">dotgh</text><text x="8.016" y="21.209" class="f">pu</text></svg><svg x="1920"><use xlink:href="#a"/><use xlink:href="#b" x="10.996" y="19.514"/><use xlink:href="#7"/><use xlink:href="#8" y="2.171"/><use xlink:href="#9" y="4.342"/><use xlink:href="#10" y="6.513"/><use xlink:href="#11" y="8.684"/><use xlink:href="#12" y="13.026"/><text y="21.209" class="f">$</text><text x="2.004" y="21.209" class="f">dotgh</text><text x="8.016" y="21.209" class="f">pul</text></svg><svg x="2000"><use xlink:href="#a"/><use xlink:href="#b" x="11.996" y="19.514"/><use xlink:href="#7"/><use xlink:href="#8" y="2.171"/><use xlink:href="#9" y="4.342"/><use xlink:href="#10" y="6.513"/><use xlink:href="#11" y="8.684"/><use xlink:href="#12" y="13.026"/><use xlink:href="#13" y="19.539"/></svg><svg x="2080"><use xlink:href="#a"/><use xlink:href="#b" x="12.996" y="19.514"/><use xlink:href="#7"/><use xlink:href="#8" y="2.171"/><use xlink:href="#9" y="4.342"/><use xlink:href="#10" y="6.513"/><use xlink:href="#11" y="8.684"/><use xlink:href="#12" y="13.026"/><use xlink:href="#13" y="19.539"/></svg><svg x="2160"><use xlink:href="#a"/><use xlink:href="#b" x="13.996" y="19.514"/><use xlink:href="#7"/><use xlink:href="#8" y="2.171"/><use xlink:href="#9" y="4.342"/><use xlink:href="#10" y="6.513"/><use xlink:href="#11" y="8.684"/><use xlink:href="#12" y="13.026"/><text y="21.209" class="f">$</text><text x="2.004" y="21.209" class="f">dotgh</text><text x="8.016" y="21.209" class="f">pull</text><text x="13.026" y="21.209" class="f">b</text></svg><svg x="2240"><use xlink:href="#a"/><use xlink:href="#b" x="14.996" y="19.514"/><use xlink:href="#7"/><use xlink:href="#8" y="2.171"/><use xlink:href="#9" y="4.342"/><use xlink:href="#10" y="6.513"/><use xlink:href="#11" y="8.684"/><use xlink:href="#12" y="13.026"/><text y="21.209" class="f">$</text><text x="2.004" y="21.209" class="f">dotgh</text><text x="8.016" y="21.209" class="f">pull</text><text x="13.026" y="21.209" class="f">bi</text></svg><svg x="2320"><use xlink:href="#a"/><use xlink:href="#b" x="15.996" y="19.514"/><use xlink:href="#7"/><use xlink:href="#8" y="2.171"/><use xlink:href="#9" y="4.342"/><use xlink:href="#10" y="6.513"/><use xlink:href="#11" y="8.684"/><use xlink:href="#12" y="13.026"/><text y="21.209" class="f">$</text><text x="2.004" y="21.209" class="f">dotgh</text><text x="8.016" y="21.209" class="f">pull</text><text x="13.026" y="21.209" class="f">bic</text></svg><svg x="2400"><use xlink:href="#a"/><use xlink:href="#b" x="16.996" y="19.514"/><use xlink:href="#7"/><use xlink:href="#8" y="2.171"/><use xlink:href="#9" y="4.342"/><use xlink:href="#10" y="6.513"/><use xlink:href="#11" y="8.684"/><use xlink:href="#12" y="13.026"/><text y="21.209" class="f">$</text><text x="2.004" y="21.209" class="f">dotgh</text><text x="8.016" y="21.209" class="f">pull</text><text x="13.026" y="21.209" class="f">bice</text></svg><svg x="2480"><use xlink:href="#a"/><use xlink:href="#b" x="17.996" y="19.514"/><use xlink:href="#7"/><use xlink:href="#8" y="2.171"/><use xlink:href="#9" y="4.342"/><use xlink:href="#10" y="6.513"/><use xlink:href="#11" y="8.684"/><use xlink:href="#12" y="13.026"/><text y="21.209" class="f">$</text><text x="2.004" y="21.209" class="f">dotgh</text><text x="8.016" y="21.209" class="f">pull</text><text x="13.026" y="21.209" class="f">bicep</text></svg><svg x="2560"><use xlink:href="#a"/><use xlink:href="#b" x="18.996" y="19.514"/><use xlink:href="#7"/><use xlink:href="#8" y="2.171"/><use xlink:href="#9" y="4.342"/><use xlink:href="#10" y="6.513"/><use xlink:href="#11" y="8.684"/><use xlink:href="#12" y="13.026"/><text y="21.209" class="f">$</text><text x="2.004" y="21.209" class="f">dotgh</text><text x="8.016" y="21.209" class="f">pull</text><text x="13.026" y="21.209" class="f">bicep-</text></svg><svg x="2640"><use xlink:href="#a"/><use xlink:href="#b" x="19.996" y="19.514"/><use xlink:href="#7"/><use xlink:href="#8" y="2.171"/><use xlink:href="#9" y="4.342"/><use xlink:href="#10" y="6.513"/><use xlink:href="#11" y="8.684"/><use xlink:href="#12" y="13.026"/><text y="21.209" class="f">$</text><text x="2.004" y="21.209" class="f">dotgh</text><text x="8.016" y="21.209" class="f">pull</text><text x="13.026" y="21.209" class="f">bicep-m</text></svg><svg x="2720"><use xlink:href="#a"/><use xlink:href="#b" x="20.996" y="19.514"/><use xlink:href="#7"/><use xlink:href="#8" y="2.171"/><use xlink:href="#9" y="4.342"/><use xlink:href="#10" y="6.513"/><use xlink:href="#11" y="8.684"/><use xlink:href="#12" y="13.026"/><text y="21.209" class="f">$</text><text x="2.004" y="21.209" class="f">dotgh</text><text x="8.016" y="21.209" class="f">pull</text><text x="13.026" y="21.209" class="f">bicep-ms</text></svg><svg x="2800"><use xlink:href="#a"/><use xlink:href="#b" x="21.996" y="19.514"/><use xlink:href="#7"/><use xlink:href="#8" y="2.171"/><use xlink:href="#9" y="4.342"/><use xlink:href="#10" y="6.513"/><use xlink:href="#11" y="8.684"/><use xlink:href="#12" y="13.026"/><text y="21.209" class="f">$</text><text x="2.004" y="21.209" class="f">dotgh</text><text x="8.016" y="21.209" class="f">pull</text><text x="13.026" y="21.209" class="f">bicep-msl</text></svg><svg x="2880"><use xlink:href="#a"/><use xlink:href="#b" x="22.996" y="19.514"/><use xlink:href="#7"/><use xlink:href="#8" y="2.171"/><use xlink:href="#9" y="4.342"/><use xlink:href="#10" y="6.513"/><use xlink:href="#11" y="8.684"/><use xlink:href="#12" y="13.026"/><text y="21.209" class="f">$</text><text x="2.004" y="21.209" class="f">dotgh</text><text x="8.016" y="21.209" class="f">pull</text><text x="13.026" y="21.209" class="f">bicep-msle</text></svg><svg x="2960"><use xlink:href="#a"/><use xlink:href="#b" x="23.996" y="19.514"/><use xlink:href="#7"/><use xlink:href="#8" y="2.171"/><use xlink:href="#9" y="4.342"/><use xlink:href="#10" y="6.513"/><use xlink:href="#11" y="8.684"/><use xlink:href="#12" y="13.026"/><text y="21.209" class="f">$</text><text x="2.004" y="21.209" class="f">dotgh</text><text x="8.016" y="21.209" class="f">pull</text><text x="13.026" y="21.209" class="f">bicep-mslea</text></svg><svg x="3040"><use xlink:href="#a"/><use xlink:href="#b" x="24.996" y="19.514"/><use xlink:href="#7"/><use xlink:href="#8" y="2.171"/><use xlink:href="#9" y="4.342"/><use xlink:href="#10" y="6.513"/><use xlink:href="#11" y="8.684"/><use xlink:href="#12" y="13.026"/><text y="21.209" class="f">$</text><text x="2.004" y="21.209" class="f">dotgh</text><text x="8.016" y="21.209" class="f">pull</text><text x="13.026" y="21.209" class="f">bicep-mslear</text></svg><svg x="3120"><use xlink:href="#a"/><use xlink:href="#b" x="25.996" y="19.514"/><use xlink:href="#7"/><use xlink:href="#8" y="2.171"/><use xlink:href="#9" y="4.342"/><use xlink:href="#10" y="6.513"/><use xlink:href="#11" y="8.684"/><use xlink:href="#12" y="13.026"/><text y="21.209" class="f">$</text><text x="2.004" y="21.209" class="f">dotgh</text><text x="8.016" y="21.209" class="f">pull</text><text x="13.026" y="21.209" class="f">bicep-mslearn</text></svg><svg x="3200"><use xlink:href="#a"/><use xlink:href="#b" x="26.996" y="19.514"/><use xlink:href="#7"/><use xlink:href="#8" y="2.171"/><use xlink:href="#9" y="4.342"/><use xlink:href="#10" y="6.513"/><use xlink:href="#11" y="8.684"/><use xlink:href="#12" y="13.026"/><text y="21.209" class="f">$</text><text x="2.004" y="21.209" class="f">dotgh</text><text x="8.016" y="21.209" class="f">pull</text><text x="13.026" y="21.209" class="f">bicep-mslearn-</text></svg><svg x="3280"><use xlink:href="#a"/><use xlink:href="#b" x="27.996" y="19.514"/><use xlink:href="#7"/><use xlink:href="#8" y="2.171"/><use xlink:href="#9" y="4.342"/><use xlink:href="#10" y="6.513"/><use xlink:href="#11" y="8.684"/><use xlink:href="#12" y="13.026"/><text y="21.209" class="f">$</text><text x="2.004" y="21.209" class="f">dotgh</text><text x="8.016" y="21.209" class="f">pull</text><text x="13.026" y="21.209" class="f">bicep-mslearn-m</text></svg><svg x="3360"><use xlink:href="#a"/><use xlink:href="#b" x="28.996" y="19.514"/><use xlink:href="#7"/><use xlink:href="#8" y="2.171"/><use xlink:href="#9" y="4.342"/><use xlink:href="#10" y="6.513"/><use xlink:href="#11" y="8.684"/><use xlink:href="#12" y="13.026"/><text y="21.209" class="f">$</text><text x="2.004" y="21.209" class="f">dotgh</text><text x="8.016" y="21.209" class="f">pull</text><text x="13.026" y="21.209" class="f">bicep-mslearn-mc</text></svg><svg x="3440"><use xlink:href="#a"/><use xlink:href="#b" x="29.996" y="19.514"/><use xlink:href="#7"/><use xlink:href="#8" y="2.171"/><use xlink:href="#9" y="4.342"/><use xlink:href="#10" y="6.513"/><use xlink:href="#11" y="8.684"/><use xlink:href="#12" y="13.026"/><use xlink:href="#14" y="19.539"/></svg><svg x="3520"><use xlink:href="#a"/><use xlink:href="#b" x="-.004" y="21.685"/><use xlink:href="#7"/><use xlink:href="#8" y="2.171"/><use xlink:href="#9" y="4.342"/><use xlink:href="#10" y="6.513"/><use xlink:href="#11" y="8.684"/><use xlink:href="#12" y="13.026"/><use xlink:href="#14" y="19.539"/></svg><svg x="3600"><use xlink:href="#a"/><use xlink:href="#b" x="-.004" y="34.711"/><use xlink:href="#7"/><use xlink:href="#8" y="2.171"/><use xlink:href="#9" y="4.342"/><use xlink:href="#10" y="6.513"/><use xlink:href="#11" y="8.684"/><use xlink:href="#12" y="13.026"/><use xlink:href="#14" y="19.539"/><use xlink:href="#15" y="21.71"/><use xlink:href="#16" y="23.881"/><use xlink:href="#17" y="26.052"/><use xlink:href="#18" y="28.223"/><use xlink:href="#19" y="30.394"/><use xlink:href="#20" y="32.565"/></svg><svg x="3680"><use xlink:href="#a"/><use xlink:href="#b" x="-.004" y="45.566"/><use xlink:href="#7"/><use xlink:href="#8" y="2.171"/><use xlink:href="#9" y="4.342"/><use xlink:href="#10" y="6.513"/><use xlink:href="#11" y="8.684"/><use xlink:href="#12" y="13.026"/><use xlink:href="#14" y="19.539"/><use xlink:href="#15" y="21.71"/><use xlink:href="#16" y="23.881"/><use xlink:href="#17" y="26.052"/><use xlink:href="#18" y="28.223"/><use xlink:href="#19" y="30.394"/><use xlink:href="#20" y="32.565"/><text x="2.004" y="36.406" class="f">✓</text><text x="4.008" y="36.406" class="f">.github/prompts/refactor.prompt.md</text><text x="2.004" y="38.577" class="f">✓</text><text x="4.008" y="38.577" class="f">.vscode/mcp.json</text><text y="42.919" class="f">Template</text><text x="9.018" y="42.919" class="f">applied</text><text x="17.034" y="42.919" class="f">successfully!</text></svg></svg></g></g></svg></svg>