<svg xmlns="http://www.w3.org/2000/svg" xmlns:xlink="http://www.w3.org/1999/xlink" width="860" height="601.04"><rect width="860" height="601.04" rx="5" ry="5" class="a"/><svg y="0%" x="0%"><circle cx="20" cy="20" r="6" fill="#ff5f58"/><circle cx="40" cy="20" r="6" fill="#ffbd2e"/><circle cx="60" cy="20" r="6" fill="#18c132"/></svg><svg height="521.04" viewBox="0 0 80 52.104" width="800" x="25" xmlns="http://www.w3.org/2000/svg" xmlns:xlink="http://www.w3.org/1999/xlink" y="60"><style>@keyframes h{0%{transform:translateX(0)}.2%{transform:translateX(-160px)}5.3%{transform:translateX(-240px)}6.1%{transform:translateX(-320px)}7%{transform:translateX(-400px)}7.8%{transform:translateX(-480px)}8.6%{transform:translateX(-560px)}9.5%{transform:translateX(-640px)}13.4%{transform:translateX(-720px)}16.5%{transform:translateX(-800px)}21.6%{transform:translateX(-880px)}22.5%{transform:translateX(-960px)}23.3%{transform:translateX(-1040px)}24.1%{transform:translateX(-1120px)}25%{transform:translateX(-1200px)}25.8%{transform:translateX(-1280px)}26.6%{transform:translateX(-1360px)}27.5%{transform:translateX(-1440px)}28.3%{transform:translateX(-1520px)}29.1%{transform:translateX(-1600px)}33%{transform:translateX(-1680px)}33.2%{transform:translateX(-1760px)}36.3%{transform:translateX(-1840px)}41.4%{transform:translateX(-1920px)}42.2%{transform:translateX(-2000px)}43.1%{transform:translateX(-2080px)}43.9%{transform:translateX(-2160px)}44.7%{transform:translateX(-2240px)}45.6%{transform:translateX(-2320px)}46.4%{transform:translateX(-2400px)}47.2%{transform:translateX(-2480px)}48.1%{transform:translateX(-2560px)}48.9%{transform:translateX(-2640px)}49.7%{transform:translateX(-2720px)}50.6%{transform:translateX(-2800px)}51.4%{transform:translateX(-2880px)}52.2%{transform:translateX(-2960px)}53.1%{transform:translateX(-3040px)}53.9%{transform:translateX(-3120px)}54.8%{transform:translateX(-3200px)}55.6%{transform:translateX(-3280px)}56.4%{transform:translateX(-3360px)}57.3%{transform:translateX(-3440px)}58.1%{transform:translateX(-3520px)}58.9%{transform:translateX(-3600px)}59.8%{transform:translateX(-3680px)}60.6%{transform:translateX(-3760px)}61.4%{transform:translateX(-3840px)}62.3%{transform:translateX(-3920px)}63.1%{transform:translateX(-4000px)}63.9%{transform:translateX(-4080px)}67.9%{transform:translateX(-4320px)}71%{transform:translateX(-4400px)}76.4%{transform:translateX(-4480px)}77.3%{transform:translateX(-4560px)}78.1%{transform:translateX(-4640px)}78.9%{transform:translateX(-4720px)}79.8%{transform:translateX(-4800px)}80.6%{transform:translateX(-4880px)}84.5%{transform:translateX(-5040px)}89.7%{transform:translateX(-5120px)}94.9%{transform:translateX(-5200px)}to{transform:translateX(-5280px)}}.a{fill:#282d35}.f{fill:#b9c0cb;white-space:pre}</style><g font-family="Monaco,Consolas,Menlo,'Bitstream Vera Sans Mono','Powerline Symbols',monospace" font-size="1.67"><defs><symbol id="1"><text y="1.67" class="f">$</text></symbol><symbol id="2"><text y="1.67" class="f">$</text><text x="2.004" y="1.67" class="f">l</text></symbol><symbol id="3"><text y="1.67" class="f">$</text><text x="2.004" y="1.67" class="f">ls</text></symbol><symbol id="4"><text y="1.67" class="f">$</text><text x="2.004" y="1.67" class="f">ls</text><text x="5.01" y="1.67" class="f">-</text></symbol><symbol id="5"><text y="1.67" class="f">$</text><text x="2.004" y="1.67" class="f">ls</text><text x="5.01" y="1.67" class="f">-l</text></symbol><symbol id="6"><text y="1.67" class="f">$</text><text x="2.004" y="1.67" class="f">ls</text><text x="5.01" y="1.67" class="f">-la</text></symbol><symbol id="7"><text y="1.67" class="f">total</text><text x="6.012" y="1.67" class="f">0</text></symbol><symbol id="8"><text y="1.67" class="f">$</text><text x="2.004" y="1.67" class="f">d</text></symbol><symbol id="9"><text y="1.67" class="f">$</text><text x="2.004" y="1.67" class="f">do</text></symbol><symbol id="10"><text y="1.67" class="f">$</text><text x="2.004" y="1.67" class="f">dot</text></symbol><symbol id="11"><text y="1.67" class="f">$</text><text x="2.004" y="1.67" class="f">dotg</text></symbol><symbol id="12"><text y="1.67" class="f">$</text><text x="2.004" y="1.67" class="f">dotgh</text></symbol><symbol id="13"><text y="1.67" class="f">$</text><text x="2.004" y="1.67" class="f">dotgh</text><text x="8.016" y="1.67" class="f">list</text></symbol><symbol id="14"><text y="1.67" class="f">Available</text><text x="10.02" y="1.67" class="f">templates:</text></symbol><symbol id="15"><text x="2.004" y="1.67" class="f">bicep-mslearn-mcp</text></symbol><symbol id="16"><text x="2.004" y="1.67" class="f">node-playwright-mcp</text></symbol><symbol id="17"><text x="2.004" y="1.67" class="f">python</text></symbol><symbol id="18"><text y="1.67" class="f">3</text><text x="2.004" y="1.67" class="f">template(s)</text><text x="14.028" y="1.67" class="f">found</text></symbol><symbol id="19"><text y="1.67" class="f">$</text><text x="2.004" y="1.67" class="f">dotgh</text><text x="8.016" y="1.67" class="f">pull</text></symbol><symbol id="20"><text y="1.67" class="f">$</text><text x="2.004" y="1.67" class="f">dotgh</text><text x="8.016" y="1.67" class="f">pull</text><text x="13.026" y="1.67" class="f">bicep-mslearn-mcp</text></symbol><symbol id="21"><text y="1.67" class="f">Pulling</text><text x="8.016" y="1.67" class="f">template</text><text x="17.034" y="1.67" class="f">&apos;bicep-mslearn-mcp&apos;...</text></symbol><symbol id="22"><text x="2.004" y="1.67" class="f">✓</text><text x="4.008" y="1.67" class="f">AGENTS.md</text></symbol><symbol id="23"><text x="2.004" y="1.67" class="f">✓</text><text x="4.008" y="1.67" class="f">.github/copilot-instructions.md</text></symbol><symbol id="24"><text x="2.004" y="1.67" class="f">✓</text><text x="4.008" y="1.67" class="f">.github/instructions/bicep.instructions.md</text></symbol><symbol id="25"><text x="2.004" y="1.67" class="f">✓</text><text x="4.008" y="1.67" class="f">.github/prompts/spec.prompt.md</text></symbol><symbol id="26"><text x="2.004" y="1.67" class="f">✓</text><text x="4.008" y="1.67" class="f">.github/prompts/plan.prompt.md</text></symbol><symbol id="27"><text x="2.004" y="1.67" class="f">✓</text><text x="4.008" y="1.67" class="f">.github/prompts/refactor.prompt.md</text></symbol><symbol id="28"><text x="2.004" y="1.67" class="f">✓</text><text x="4.008" y="1.67" class="f">.vscode/mcp.json</text></symbol><symbol id="29"><text y="1.67" class="f">Template</text><text x="9.018" y="1.67" class="f">applied</text><text x="17.034" y="1.67" class="f">successfully!</text></symbol><symbol id="30"><text y="1.67" class="f">total</text><text x="6.012" y="1.67" class="f">16</text></symbol><symbol id="31"><text y="1.67" class="f">drwxr-xr-x</text><text x="12.024" y="1.67" class="f">3</text><text x="14.028" y="1.67" class="f">user</text><text x="19.038" y="1.67" class="f">user</text><text x="24.048" y="1.67" class="f">4096</text><text x="29.058" y="1.67" class="f">Dec</text><text x="34.068" y="1.67" class="f">1</text><text x="36.072" y="1.67" class="f">12:00</text><text x="42.084" y="1.67" class="f">.</text></symbol><symbol id="32"><text y="1.67" class="f">drwxr-xr-x</text><text x="11.022" y="1.67" class="f">10</text><text x="14.028" y="1.67" class="f">user</text><text x="19.038" y="1.67" class="f">user</text><text x="24.048" y="1.67" class="f">4096</text><text x="29.058" y="1.67" class="f">Dec</text><text x="34.068" y="1.67" class="f">1</text><text x="36.072" y="1.67" class="f">12:00</text><text x="42.084" y="1.67" class="f">..</text></symbol><symbol id="33"><text y="1.67" class="f">drwxr-xr-x</text><text x="12.024" y="1.67" class="f">4</text><text x="14.028" y="1.67" class="f">user</text><text x="19.038" y="1.67" class="f">user</text><text x="24.048" y="1.67" class="f">4096</text><text x="29.058" y="1.67" class="f">Dec</text><text x="34.068" y="1.67" class="f">1</text><text x="36.072" y="1.67" class="f">12:00</text><text x="42.084" y="1.67" class="f">.github</text></symbol><symbol id="34"><text y="1.67" class="f">drwxr-xr-x</text><text x="12.024" y="1.67" class="f">2</text><text x="14.028" y="1.67" class="f">user</text><text x="19.038" y="1.67" class="f">user</text><text x="24.048" y="1.67" class="f">4096</text><text x="29.058" y="1.67" class="f">Dec</text><text x="34.068" y="1.67" class="f">1</text><text x="36.072" y="1.67" class="f">12:00</text><text x="42.084" y="1.67" class="f">.vscode</text></symbol><symbol id="35"><text y="1.67" class="f">-rw-r--r--</text><text x="12.024" y="1.67" class="f">1</text><text x="14.028" y="1.67" class="f">user</text><text x="19.038" y="1.67" class="f">user</text><text x="25.05" y="1.67" class="f">512</text><text x="29.058" y="1.67" class="f">Dec</text><text x="34.068" y="1.67" class="f">1</text><text x="36.072" y="1.67" class="f">12:00</text><text x="42.084" y="1.67" class="f">AGENTS.md</text></symbol><symbol id="a"><path fill="transparent" d="M0 0h80v25H0z"/></symbol></defs><path class="a" d="M0 0h80v52.104H0z"/><g style="animation-duration:9.7658s;animation-iteration-count:infinite;animation-name:h;animation-timing-function:steps(1,end)"><svg width="5360"><svg><use xlink:href="#a"/></svg><svg x="80"><use xlink:href="#a"/></svg><svg x="160"><use xlink:href="#a"/><use xlink:href="#1"/></svg><svg x="240"><use xlink:href="#a"/><use xlink:href="#2"/></svg><svg x="320"><use xlink:href="#a"/><use xlink:href="#3"/></svg><svg x="400"><use xlink:href="#a"/><use xlink:href="#3"/></svg><svg x="480"><use xlink:href="#a"/><use xlink:href="#4"/></svg><svg x="560"><use xlink:href="#a"/><use xlink:href="#5"/></svg><svg x="640"><use xlink:href="#a"/><use xlink:href="#6"/></svg><svg x="720"><use xlink:href="#a"/><use xlink:href="#6"/><use xlink:href="#7" y="2.171"/></svg><svg x="800"><use xlink:href="#a"/><use xlink:href="#6"/><use xlink:href="#7" y="2.171"/><use xlink:href="#1" y="6.513"/></svg><svg x="880"><use xlink:href="#a"/><use xlink:href="#6"/><use xlink:href="#7" y="2.171"/><use xlink:href="#8" y="6.513"/></svg><svg x="960"><use xlink:href="#a"/><use xlink:href="#6"/><use xlink:href="#7" y="2.171"/><use xlink:href="#9" y="6.513"/></svg><svg x="1040"><use xlink:href="#a"/><use xlink:href="#6"/><use xlink:href="#7" y="2.171"/><use xlink:href="#10" y="6.513"/></svg><svg x="1120"><use xlink:href="#a"/><use xlink:href="#6"/><use xlink:href="#7" y="2.171"/><use xlink:href="#11" y="6.513"/></svg><svg x="1200"><use xlink:href="#a"/><use xlink:href="#6"/><use xlink:href="#7" y="2.171"/><use xlink:href="#12" y="6.513"/></svg><svg x="1280"><use xlink:href="#a"/><use xlink:href="#6"/><use xlink:href="#7" y="2.171"/><use xlink:href="#12" y="6.513"/></svg><svg x="1360"><use xlink:href="#a"/><use xlink:href="#6"/><use xlink:href="#7" y="2.171"/><text y="8.183" class="f">$</text><text x="2.004" y="8.183" class="f">dotgh</text><text x="8.016" y="8.183" class="f">l</text></svg><svg x="1440"><use xlink:href="#a"/><use xlink:href="#6"/><use xlink:href="#7" y="2.171"/><text y="8.183" class="f">$</text><text x="2.004" y="8.183" class="f">dotgh</text><text x="8.016" y="8.183" class="f">li</text></svg><svg x="1520"><use xlink:href="#a"/><use xlink:href="#6"/><use xlink:href="#7" y="2.171"/><text y="8.183" class="f">$</text><text x="2.004" y="8.183" class="f">dotgh</text><text x="8.016" y="8.183" class="f">lis</text></svg><svg x="1600"><use xlink:href="#a"/><use xlink:href="#6"/><use xlink:href="#7" y="2.171"/><use xlink:href="#13" y="6.513"/></svg><svg x="1680"><use xlink:href="#a"/><use xlink:href="#6"/><use xlink:href="#7" y="2.171"/><use xlink:href="#13" y="6.513"/></svg><svg x="1760"><use xlink:href="#a"/><use xlink:href="#6"/><use xlink:href="#7" y="2.171"/><use xlink:href="#13" y="6.513"/><use xlink:href="#14" y="8.684"/><use xlink:href="#15" y="10.855"/><use xlink:href="#16" y="13.026"/><use xlink:href="#17" y="15.197"/><use xlink:href="#18" y="19.539"/></svg><svg x="1840"><use xlink:href="#a"/><use xlink:href="#6"/><use xlink:href="#7" y="2.171"/><use xlink:href="#13" y="6.513"/><use xlink:href="#14" y="8.684"/><use xlink:href="#15" y="10.855"/><use xlink:href="#16" y="13.026"/><use xlink:href="#17" y="15.197"/><use xlink:href="#18" y="19.539"/><use xlink:href="#1" y="26.052"/></svg><svg x="1920"><use xlink:href="#a"/><use xlink:href="#6"/><use xlink:href="#7" y="2.171"/><use xlink:href="#13" y="6.513"/><use xlink:href="#14" y="8.684"/><use xlink:href="#15" y="10.855"/><use xlink:href="#16" y="13.026"/><use xlink:href="#17" y="15.197"/><use xlink:href="#18" y="19.539"/><use xlink:href="#8" y="26.052"/></svg><svg x="2000"><use xlink:href="#a"/><use xlink:href="#6"/><use xlink:href="#7" y="2.171"/><use xlink:href="#13" y="6.513"/><use xlink:href="#14" y="8.684"/><use xlink:href="#15" y="10.855"/><use xlink:href="#16" y="13.026"/><use xlink:href="#17" y="15.197"/><use xlink:href="#18" y="19.539"/><use xlink:href="#9" y="26.052"/></svg><svg x="2080"><use xlink:href="#a"/><use xlink:href="#6"/><use xlink:href="#7" y="2.171"/><use xlink:href="#13" y="6.513"/><use xlink:href="#14" y="8.684"/><use xlink:href="#15" y="10.855"/><use xlink:href="#16" y="13.026"/><use xlink:href="#17" y="15.197"/><use xlink:href="#18" y="19.539"/><use xlink:href="#10" y="26.052"/></svg><svg x="2160"><use xlink:href="#a"/><use xlink:href="#6"/><use xlink:href="#7" y="2.171"/><use xlink:href="#13" y="6.513"/><use xlink:href="#14" y="8.684"/><use xlink:href="#15" y="10.855"/><use xlink:href="#16" y="13.026"/><use xlink:href="#17" y="15.197"/><use xlink:href="#18" y="19.539"/><use xlink:href="#11" y="26.052"/></svg><svg x="2240"><use xlink:href="#a"/><use xlink:href="#6"/><use xlink:href="#7" y="2.171"/><use xlink:href="#13" y="6.513"/><use xlink:href="#14" y="8.684"/><use xlink:href="#15" y="10.855"/><use xlink:href="#16" y="13.026"/><use xlink:href="#17" y="15.197"/><use xlink:href="#18" y="19.539"/><use xlink:href="#12" y="26.052"/></svg><svg x="2320"><use xlink:href="#a"/><use xlink:href="#6"/><use xlink:href="#7" y="2.171"/><use xlink:href="#13" y="6.513"/><use xlink:href="#14" y="8.684"/><use xlink:href="#15" y="10.855"/><use xlink:href="#16" y="13.026"/><use xlink:href="#17" y="15.197"/><use xlink:href="#18" y="19.539"/><use xlink:href="#12" y="26.052"/></svg><svg x="2400"><use xlink:href="#a"/><use xlink:href="#6"/><use xlink:href="#7" y="2.171"/><use xlink:href="#13" y="6.513"/><use xlink:href="#14" y="8.684"/><use xlink:href="#15" y="10.855"/><use xlink:href="#16" y="13.026"/><use xlink:href="#17" y="15.197"/><use xlink:href="#18" y="19.539"/><text y="27.722" class="f">$</text><text x="2.004" y="27.722" class="f">dotgh</text><text x="8.016" y="27.722" class="f">p</text></svg><svg x="2480"><use xlink:href="#a"/><use xlink:href="#6"/><use xlink:href="#7" y="2.171"/><use xlink:href="#13" y="6.513"/><use xlink:href="#14" y="8.684"/><use xlink:href="#15" y="10.855"/><use xlink:href="#16" y="13.026"/><use xlink:href="#17" y="15.197"/><use xlink:href="#18" y="19.539"/><text y="27.722" class="f">$</text><text x="2.004" y="27.722" class="f">dotgh</text><text x="8.016" y="27.722" class="f">pu</text></svg><svg x="2560"><use xlink:href="#a"/><use xlink:href="#6"/><use xlink:href="#7" y="2.171"/><use xlink:href="#13" y="6.513"/><use xlink:href="#14" y="8.684"/><use xlink:href="#15" y="10.855"/><use xlink:href="#16" y="13.026"/><use xlink:href="#17" y="15.197"/><use xlink:href="#18" y="19.539"/><text y="27.722" class="f">$</text><text x="2.004" y="27.722" class="f">dotgh</text><text x="8.016" y="27.722" class="f">pul</text></svg><svg x="2640"><use xlink:href="#a"/><use xlink:href="#6"/><use xlink:href="#7" y="2.171"/><use xlink:href="#13" y="6.513"/><use xlink:href="#14" y="8.684"/><use xlink:href="#15" y="10.855"/><use xlink:href="#16" y="13.026"/><use xlink:href="#17" y="15.197"/><use xlink:href="#18" y="19.539"/><use xlink:href="#19" y="26.052"/></svg><svg x="2720"><use xlink:href="#a"/><use xlink:href="#6"/><use xlink:href="#7" y="2.171"/><use xlink:href="#13" y="6.513"/><use xlink:href="#14" y="8.684"/><use xlink:href="#15" y="10.855"/><use xlink:href="#16" y="13.026"/><use xlink:href="#17" y="15.197"/><use xlink:href="#18" y="19.539"/><use xlink:href="#19" y="26.052"/></svg><svg x="2800"><use xlink:href="#a"/><use xlink:href="#6"/><use xlink:href="#7" y="2.171"/><use xlink:href="#13" y="6.513"/><use xlink:href="#14" y="8.684"/><use xlink:href="#15" y="10.855"/><use xlink:href="#16" y="13.026"/><use xlink:href="#17" y="15.197"/><use xlink:href="#18" y="19.539"/><text y="27.722" class="f">$</text><text x="2.004" y="27.722" class="f">dotgh</text><text x="8.016" y="27.722" class="f">pull</text><text x="13.026" y="27.722" class="f">b</text></svg><svg x="2880"><use xlink:href="#a"/><use xlink:href="#6"/><use xlink:href="#7" y="2.171"/><use xlink:href="#13" y="6.513"/><use xlink:href="#14" y="8.684"/><use xlink:href="#15" y="10.855"/><use xlink:href="#16" y="13.026"/><use xlink:href="#17" y="15.197"/><use xlink:href="#18" y="19.539"/><text y="27.722" class="f">$</text><text x="2.004" y="27.722" class="f">dotgh</text><text x="8.016" y="27.722" class="f">pull</text><text x="13.026" y="27.722" class="f">bi</text></svg><svg x="2960"><use xlink:href="#a"/><use xlink:href="#6"/><use xlink:href="#7" y="2.171"/><use xlink:href="#13" y="6.513"/><use xlink:href="#14" y="8.684"/><use xlink:href="#15" y="10.855"/><use xlink:href="#16" y="13.026"/><use xlink:href="#17" y="15.197"/><use xlink:href="#18" y="19.539"/><text y="27.722" class="f">$</text><text x="2.004" y="27.722" class="f">dotgh</text><text x="8.016" y="27.722" class="f">pull</text><text x="13.026" y="27.722" class="f">bic</text></svg><svg x="3040"><use xlink:href="#a"/><use xlink:href="#6"/><use xlink:href="#7" y="2.171"/><use xlink:href="#13" y="6.513"/><use xlink:href="#14" y="8.684"/><use xlink:href="#15" y="10.855"/><use xlink:href="#16" y="13.026"/><use xlink:href="#17" y="15.197"/><use xlink:href="#18" y="19.539"/><text y="27.722" class="f">$</text><text x="2.004" y="27.722" class="f">dotgh</text><text x="8.016" y="27.722" class="f">pull</text><text x="13.026" y="27.722" class="f">bice</text></svg><svg x="3120"><use xlink:href="#a"/><use xlink:href="#6"/><use xlink:href="#7" y="2.171"/><use xlink:href="#13" y="6.513"/><use xlink:href="#14" y="8.684"/><use xlink:href="#15" y="10.855"/><use xlink:href="#16" y="13.026"/><use xlink:href="#17" y="15.197"/><use xlink:href="#18" y="19.539"/><text y="27.722" class="f">$</text><text x="2.004" y="27.722" class="f">dotgh</text><text x="8.016" y="27.722" class="f">pull</text><text x="13.026" y="27.722" class="f">bicep</text></svg><svg x="3200"><use xlink:href="#a"/><use xlink:href="#6"/><use xlink:href="#7" y="2.171"/><use xlink:href="#13" y="6.513"/><use xlink:href="#14" y="8.684"/><use xlink:href="#15" y="10.855"/><use xlink:href="#16" y="13.026"/><use xlink:href="#17" y="15.197"/><use xlink:href="#18" y="19.539"/><text y="27.722" class="f">$</text><text x="2.004" y="27.722" class="f">dotgh</text><text x="8.016" y="27.722" class="f">pull</text><text x="13.026" y="27.722" class="f">bicep-</text></svg><svg x="3280"><use xlink:href="#a"/><use xlink:href="#6"/><use xlink:href="#7" y="2.171"/><use xlink:href="#13" y="6.513"/><use xlink:href="#14" y="8.684"/><use xlink:href="#15" y="10.855"/><use xlink:href="#16" y="13.026"/><use xlink:href="#17" y="15.197"/><use xlink:href="#18" y="19.539"/><text y="27.722" class="f">$</text><text x="2.004" y="27.722" class="f">dotgh</text><text x="8.016" y="27.722" class="f">pull</text><text x="13.026" y="27.722" class="f">bicep-m</text></svg><svg x="3360"><use xlink:href="#a"/><use xlink:href="#6"/><use xlink:href="#7" y="2.171"/><use xlink:href="#13" y="6.513"/><use xlink:href="#14" y="8.684"/><use xlink:href="#15" y="10.855"/><use xlink:href="#16" y="13.026"/><use xlink:href="#17" y="15.197"/><use xlink:href="#18" y="19.539"/><text y="27.722" class="f">$</text><text x="2.004" y="27.722" class="f">dotgh</text><text x="8.016" y="27.722" class="f">pull</text><text x="13.026" y="27.722" class="f">bicep-ms</text></svg><svg x="3440"><use xlink:href="#a"/><use xlink:href="#6"/><use xlink:href="#7" y="2.171"/><use xlink:href="#13" y="6.513"/><use xlink:href="#14" y="8.684"/><use xlink:href="#15" y="10.855"/><use xlink:href="#16" y="13.026"/><use xlink:href="#17" y="15.197"/><use xlink:href="#18" y="19.539"/><text y="27.722" class="f">$</text><text x="2.004" y="27.722" class="f">dotgh</text><text x="8.016" y="27.722" class="f">pull</text><text x="13.026" y="27.722" class="f">bicep-msl</text></svg><svg x="3520"><use xlink:href="#a"/><use xlink:href="#6"/><use xlink:href="#7" y="2.171"/><use xlink:href="#13" y="6.513"/><use xlink:href="#14" y="8.684"/><use xlink:href="#15" y="10.855"/><use xlink:href="#16" y="13.026"/><use xlink:href="#17" y="15.197"/><use xlink:href="#18" y="19.539"/><text y="27.722" class="f">$</text><text x="2.004" y="27.722" class="f">dotgh</text><text x="8.016" y="27.722" class="f">pull</text><text x="13.026" y="27.722" class="f">bicep-msle</text></svg><svg x="3600"><use xlink:href="#a"/><use xlink:href="#6"/><use xlink:href="#7" y="2.171"/><use xlink:href="#13" y="6.513"/><use xlink:href="#14" y="8.684"/><use xlink:href="#15" y="10.855"/><use xlink:href="#16" y="13.026"/><use xlink:href="#17" y="15.197"/><use xlink:href="#18" y="19.539"/><text y="27.722" class="f">$</text><text x="2.004" y="27.722" class="f">dotgh</text><text x="8.016" y="27.722" class="f">pull</text><text x="13.026" y="27.722" class="f">bicep-mslea</text></svg><svg x="3680"><use xlink:href="#a"/><use xlink:href="#6"/><use xlink:href="#7" y="2.171"/><use xlink:href="#13" y="6.513"/><use xlink:href="#14" y="8.684"/><use xlink:href="#15" y="10.855"/><use xlink:href="#16" y="13.026"/><use xlink:href="#17" y="15.197"/><use xlink:href="#18" y="19.539"/><text y="27.722" class="f">$</text><text x="2.004" y="27.722" class="f">dotgh</text><text x="8.016" y="27.722" class="f">pull</text><text x="13.026" y="27.722" class="f">bicep-mslear</text></svg><svg x="3760"><use xlink:href="#a"/><use xlink:href="#6"/><use xlink:href="#7" y="2.171"/><use xlink:href="#13" y="6.513"/><use xlink:href="#14" y="8.684"/><use xlink:href="#15" y="10.855"/><use xlink:href="#16" y="13.026"/><use xlink:href="#17" y="15.197"/><use xlink:href="#18" y="19.539"/><text y="27.722" class="f">$</text><text x="2.004" y="27.722" class="f">dotgh</text><text x="8.016" y="27.722" class="f">pull</text><text x="13.026" y="27.722" class="f">bicep-mslearn</text></svg><svg x="3840"><use xlink:href="#a"/><use xlink:href="#6"/><use xlink:href="#7" y="2.171"/><use xlink:href="#13" y="6.513"/><use xlink:href="#14" y="8.684"/><use xlink:href="#15" y="10.855"/><use xlink:href="#16" y="13.026"/><use xlink:href="#17" y="15.197"/><use xlink:href="#18" y="19.539"/><text y="27.722" class="f">$</text><text x="2.004" y="27.722" class="f">dotgh</text><text x="8.016" y="27.722" class="f">pull</text><text x="13.026" y="27.722" class="f">bicep-mslearn-</text></svg><svg x="3920"><use xlink:href="#a"/><use xlink:href="#6"/><use xlink:href="#7" y="2.171"/><use xlink:href="#13" y="6.513"/><use xlink:href="#14" y="8.684"/><use xlink:href="#15" y="10.855"/><use xlink:href="#16" y="13.026"/><use xlink:href="#17" y="15.197"/><use xlink:href="#18" y="19.539"/><text y="27.722" class="f">$</text><text x="2.004" y="27.722" class="f">dotgh</text><text x="8.016" y="27.722" class="f">pull</text><text x="13.026" y="27.722" class="f">bicep-mslearn-m</text></svg><svg x="4000"><use xlink:href="#a"/><use xlink:href="#6"/><use xlink:href="#7" y="2.171"/><use xlink:href="#13" y="6.513"/><use xlink:href="#14" y="8.684"/><use xlink:href="#15" y="10.855"/><use xlink:href="#16" y="13.026"/><use xlink:href="#17" y="15.197"/><use xlink:href="#18" y="19.539"/><text y="27.722" class="f">$</text><text x="2.004" y="27.722" class="f">dotgh</text><text x="8.016" y="27.722" class="f">pull</text><text x="13.026" y="27.722" class="f">bicep-mslearn-mc</text></svg><svg x="4080"><use xlink:href="#a"/><use xlink:href="#6"/><use xlink:href="#7" y="2.171"/><use xlink:href="#13" y="6.513"/><use xlink:href="#14" y="8.684"/><use xlink:href="#15" y="10.855"/><use xlink:href="#16" y="13.026"/><use xlink:href="#17" y="15.197"/><use xlink:href="#18" y="19.539"/><use xlink:href="#20" y="26.052"/></svg><svg x="4160"><use xlink:href="#a"/><use xlink:href="#6"/><use xlink:href="#7" y="2.171"/><use xlink:href="#13" y="6.513"/><use xlink:href="#14" y="8.684"/><use xlink:href="#15" y="10.855"/><use xlink:href="#16" y="13.026"/><use xlink:href="#17" y="15.197"/><use xlink:href="#18" y="19.539"/><use xlink:href="#20" y="26.052"/></svg><svg x="4240"><use xlink:href="#a"/><use xlink:href="#6"/><use xlink:href="#7" y="2.171"/><use xlink:href="#13" y="6.513"/><use xlink:href="#14" y="8.684"/><use xlink:href="#15" y="10.855"/><use xlink:href="#16" y="13.026"/><use xlink:href="#17" y="15.197"/><use xlink:href="#18" y="19.539"/><use xlink:href="#20" y="26.052"/><use xlink:href="#21" y="28.223"/><use xlink:href="#22" y="30.394"/><use xlink:href="#23" y="32.565"/><use xlink:href="#24" y="34.736"/><use xlink:href="#25" y="36.907"/><use xlink:href="#26" y="39.078"/><use xlink:href="#27" y="41.249"/><use xlink:href="#28" y="43.42"/></svg><svg x="4320"><use xlink:href="#a"/><use xlink:href="#6"/><use xlink:href="#7" y="2.171"/><use xlink:href="#13" y="6.513"/><use xlink:href="#14" y="8.684"/><use xlink:href="#15" y="10.855"/><use xlink:href="#16" y="13.026"/><use xlink:href="#17" y="15.197"/><use xlink:href="#18" y="19.539"/><use xlink:href="#20" y="26.052"/><use xlink:href="#21" y="28.223"/><use xlink:href="#22" y="30.394"/><use xlink:href="#23" y="32.565"/><use xlink:href="#24" y="34.736"/><use xlink:href="#25" y="36.907"/><use xlink:href="#26" y="39.078"/><use xlink:href="#27" y="41.249"/><use xlink:href="#28" y="43.42"/><use xlink:href="#29" y="47.762"/></svg><svg x="4400"><use xlink:href="#a"/><use xlink:href="#7"/><use xlink:href="#13" y="4.342"/><use xlink:href="#14" y="6.513"/><use xlink:href="#15" y="8.684"/><use xlink:href="#16" y="10.855"/><use xlink:href="#17" y="13.026"/><use xlink:href="#18" y="17.368"/><use xlink:href="#20" y="23.881"/><use xlink:href="#21" y="26.052"/><use xlink:href="#22" y="28.223"/><use xlink:href="#23" y="30.394"/><use xlink:href="#24" y="32.565"/><use xlink:href="#25" y="34.736"/><use xlink:href="#26" y="36.907"/><use xlink:href="#27" y="39.078"/><use xlink:href="#28" y="41.249"/><use xlink:href="#29" y="45.591"/><use xlink:href="#1" y="52.104"/></svg><svg x="4480"><use xlink:href="#a"/><use xlink:href="#7"/><use xlink:href="#13" y="4.342"/><use xlink:href="#14" y="6.513"/><use xlink:href="#15" y="8.684"/><use xlink:href="#16" y="10.855"/><use xlink:href="#17" y="13.026"/><use xlink:href="#18" y="17.368"/><use xlink:href="#20" y="23.881"/><use xlink:href="#21" y="26.052"/><use xlink:href="#22" y="28.223"/><use xlink:href="#23" y="30.394"/><use xlink:href="#24" y="32.565"/><use xlink:href="#25" y="34.736"/><use xlink:href="#26" y="36.907"/><use xlink:href="#27" y="39.078"/><use xlink:href="#28" y="41.249"/><use xlink:href="#29" y="45.591"/><use xlink:href="#2" y="52.104"/></svg><svg x="4560"><use xlink:href="#a"/><use xlink:href="#7"/><use xlink:href="#13" y="4.342"/><use xlink:href="#14" y="6.513"/><use xlink:href="#15" y="8.684"/><use xlink:href="#16" y="10.855"/><use xlink:href="#17" y="13.026"/><use xlink:href="#18" y="17.368"/><use xlink:href="#20" y="23.881"/><use xlink:href="#21" y="26.052"/><use xlink:href="#22" y="28.223"/><use xlink:href="#23" y="30.394"/><use xlink:href="#24" y="32.565"/><use xlink:href="#25" y="34.736"/><use xlink:href="#26" y="36.907"/><use xlink:href="#27" y="39.078"/><use xlink:href="#28" y="41.249"/><use xlink:href="#29" y="45.591"/><use xlink:href="#3" y="52.104"/></svg><svg x="4640"><use xlink:href="#a"/><use xlink:href="#7"/><use xlink:href="#13" y="4.342"/><use xlink:href="#14" y="6.513"/><use xlink:href="#15" y="8.684"/><use xlink:href="#16" y="10.855"/><use xlink:href="#17" y="13.026"/><use xlink:href="#18" y="17.368"/><use xlink:href="#20" y="23.881"/><use xlink:href="#21" y="26.052"/><use xlink:href="#22" y="28.223"/><use xlink:href="#23" y="30.394"/><use xlink:href="#24" y="32.565"/><use xlink:href="#25" y="34.736"/><use xlink:href="#26" y="36.907"/><use xlink:href="#27" y="39.078"/><use xlink:href="#28" y="41.249"/><use xlink:href="#29" y="45.591"/><use xlink:href="#3" y="52.104"/></svg><svg x="4720"><use xlink:href="#a"/><use xlink:href="#7"/><use xlink:href="#13" y="4.342"/><use xlink:href="#14" y="6.513"/><use xlink:href="#15" y="8.684"/><use xlink:href="#16" y="10.855"/><use xlink:href="#17" y="13.026"/><use xlink:href="#18" y="17.368"/><use xlink:href="#20" y="23.881"/><use xlink:href="#21" y="26.052"/><use xlink:href="#22" y="28.223"/><use xlink:href="#23" y="30.394"/><use xlink:href="#24" y="32.565"/><use xlink:href="#25" y="34.736"/><use xlink:href="#26" y="36.907"/><use xlink:href="#27" y="39.078"/><use xlink:href="#28" y="41.249"/><use xlink:href="#29" y="45.591"/><use xlink:href="#4" y="52.104"/></svg><svg x="4800"><use xlink:href="#a"/><use xlink:href="#7"/><use xlink:href="#13" y="4.342"/><use xlink:href="#14" y="6.513"/><use xlink:href="#15" y="8.684"/><use xlink:href="#16" y="10.855"/><use xlink:href="#17" y="13.026"/><use xlink:href="#18" y="17.368"/><use xlink:href="#20" y="23.881"/><use xlink:href="#21" y="26.052"/><use xlink:href="#22" y="28.223"/><use xlink:href="#23" y="30.394"/><use xlink:href="#24" y="32.565"/><use xlink:href="#25" y="34.736"/><use xlink:href="#26" y="36.907"/><use xlink:href="#27" y="39.078"/><use xlink:href="#28" y="41.249"/><use xlink:href="#29" y="45.591"/><use xlink:href="#5" y="52.104"/></svg><svg x="4880"><use xlink:href="#a"/><use xlink:href="#7"/><use xlink:href="#13" y="4.342"/><use xlink:href="#14" y="6.513"/><use xlink:href="#15" y="8.684"/><use xlink:href="#16" y="10.855"/><use xlink:href="#17" y="13.026"/><use xlink:href="#18" y="17.368"/><use xlink:href="#20" y="23.881"/><use xlink:href="#21" y="26.052"/><use xlink:href="#22" y="28.223"/><use xlink:href="#23" y="30.394"/><use xlink:href="#24" y="32.565"/><use xlink:href="#25" y="34.736"/><use xlink:href="#26" y="36.907"/><use xlink:href="#27" y="39.078"/><use xlink:href="#28" y="41.249"/><use xlink:href="#29" y="45.591"/><use xlink:href="#6" y="52.104"/></svg><svg x="4960"><use xlink:href="#a"/><use xlink:href="#15"/><use xlink:href="#16" y="2.171"/><use xlink:href="#17" y="4.342"/><use xlink:href="#18" y="8.684"/><use xlink:href="#20" y="15.197"/><use xlink:href="#21" y="17.368"/><use xlink:href="#22" y="19.539"/><use xlink:href="#23" y="21.71"/><use xlink:href="#24" y="23.881"/><use xlink:href="#25" y="26.052"/><use xlink:href="#26" y="28.223"/><use xlink:href="#27" y="30.394"/><use xlink:href="#28" y="32.565"/><use xlink:href="#29" y="36.907"/><use xlink:href="#6" y="43.42"/><use xlink:href="#30" y="45.591"/><use xlink:href="#31" y="47.762"/><use xlink:href="#32" y="49.933"/></svg><svg x="5040"><use xlink:href="#a"/><use xlink:href="#18"/><use xlink:href="#20" y="6.513"/><use xlink:href="#21" y="8.684"/><use xlink:href="#22" y="10.855"/><use xlink:href="#23" y="13.026"/><use xlink:href="#24" y="15.197"/><use xlink:href="#25" y="17.368"/><use xlink:href="#26" y="19.539"/><use xlink:href="#27" y="21.71"/><use xlink:href="#28" y="23.881"/><use xlink:href="#29" y="28.223"/><use xlink:href="#6" y="34.736"/><use xlink:href="#30" y="36.907"/><use xlink:href="#31" y="39.078"/><use xlink:href="#32" y="41.249"/><use xlink:href="#33" y="43.42"/><use xlink:href="#34" y="45.591"/><use xlink:href="#35" y="47.762"/><use xlink:href="#1" y="52.104"/></svg><svg x="5120"><use xlink:href="#a"/><use xlink:href="#18"/><use xlink:href="#20" y="6.513"/><use xlink:href="#21" y="8.684"/><use xlink:href="#22" y="10.855"/><use xlink:href="#23" y="13.026"/><use xlink:href="#24" y="15.197"/><use xlink:href="#25" y="17.368"/><use xlink:href="#26" y="19.539"/><use xlink:href="#27" y="21.71"/><use xlink:href="#28" y="23.881"/><use xlink:href="#29" y="28.223"/><use xlink:href="#6" y="34.736"/><use xlink:href="#30" y="36.907"/><use xlink:href="#31" y="39.078"/><use xlink:href="#32" y="41.249"/><use xlink:href="#33" y="43.42"/><use xlink:href="#34" y="45.591"/><use xlink:href="#35" y="47.762"/><use xlink:href="#1" y="52.104"/></svg><svg x="5200"><use xlink:href="#a"/><use xlink:href="#18"/><use xlink:href="#20" y="6.513"/><use xlink:href="#21" y="8.684"/><use xlink:href="#22" y="10.855"/><use xlink:href="#23" y="13.026"/><use xlink:href="#24" y="15.197"/><use xlink:href="#25" y="17.368"/><use xlink:href="#26" y="19.539"/><use xlink:href="#27" y="21.71"/><use xlink:href="#28" y="23.881"/><use xlink:href="#29" y="28.223"/><use xlink:href="#6" y="34.736"/><use xlink:href="#30" y="36.907"/><use xlink:href="#31" y="39.078"/><use xlink:href="#32" y="41.249"/><use xlink:href="#33" y="43.42"/><use xlink:href="#34" y="45.591"/><use xlink:href="#35" y="47.762"/><use xlink:href="#1" y="52.104"/></svg><svg x="5280"><use xlink:href="#a"/><use xlink:href="#18"/><use xlink:href="#20" y="6.513"/><use xlink:href="#21" y="8.684"/><use xlink:href="#22" y="10.855"/><use xlink:href="#23" y="13.026"/><use xlink:href="#24" y="15.197"/><use xlink:href="#25" y="17.368"/><use xlink:href="#26" y="19.539"/><use xlink:href="#27" y="21.71"/><use xlink:href="#28" y="23.881"/><use xlink:href="#29" y="28.223"/><use xlink:href="#6" y="34.736"/><use xlink:href="#30" y="36.907"/><use xlink:href="#31" y="39.078"/><use xlink:href="#32" y="41.249"/><use xlink:href="#33" y="43.42"/><use xlink:href="#34" y="45.591"/><use xlink:href="#35" y="47.762"/><use xlink:href="#1" y="52.104"/></svg></svg></g></g></svg></svg>