<svg xmlns="http://www.w3.org/2000/svg" xmlns:xlink="http://www.w3.org/1999/xlink" width="860" height="601.04"><rect width="860" height="601.04" rx="5" ry="5" class="a"/><svg y="0%" x="0%"><circle cx="20" cy="20" r="6" fill="#ff5f58"/><circle cx="40" cy="20" r="6" fill="#ffbd2e"/><circle cx="60" cy="20" r="6" fill="#18c132"/></svg><svg height="521.04" viewBox="0 0 80 52.104" width="800" x="25" xmlns="http://www.w3.org/2000/svg" xmlns:xlink="http://www.w3.org/1999/xlink" y="60"><style>@keyframes h{0%{transform:translateX(0)}.1%{transform:translateX(-160px)}4.6%{transform:translateX(-240px)}5.3%{transform:translateX(-320px)}6.1%{transform:translateX(-400px)}6.8%{transform:translateX(-480px)}7.5%{transform:translateX(-560px)}8.2%{transform:translateX(-640px)}11.6%{transform:translateX(-720px)}14.3%{transform:translateX(-800px)}18.8%{transform:translateX(-880px)}19.5%{transform:translateX(-960px)}20.2%{transform:translateX(-1040px)}20.9%{transform:translateX(-1120px)}21.6%{transform:translateX(-1200px)}22.4%{transform:translateX(-1280px)}23.1%{transform:translateX(-1360px)}23.8%{transform:translateX(-1440px)}24.5%{transform:translateX(-1520px)}25.2%{transform:translateX(-1600px)}28.7%{transform:translateX(-1840px)}31.4%{transform:translateX(-1920px)}35.9%{transform:translateX(-2000px)}36.6%{transform:translateX(-2080px)}37.3%{transform:translateX(-2160px)}38.1%{transform:translateX(-2240px)}38.8%{transform:translateX(-2320px)}39.5%{transform:translateX(-2400px)}40.2%{transform:translateX(-2480px)}40.9%{transform:translateX(-2560px)}41.7%{transform:translateX(-2640px)}42.4%{transform:translateX(-2720px)}43.1%{transform:translateX(-2800px)}43.8%{transform:translateX(-2880px)}44.6%{transform:translateX(-2960px)}45.3%{transform:translateX(-3040px)}46.3%{transform:translateX(-3120px)}47%{transform:translateX(-3200px)}47.7%{transform:translateX(-3280px)}48.4%{transform:translateX(-3360px)}49.1%{transform:translateX(-3440px)}49.9%{transform:translateX(-3520px)}50.6%{transform:translateX(-3600px)}51.3%{transform:translateX(-3680px)}52%{transform:translateX(-3760px)}52.8%{transform:translateX(-3840px)}53.5%{transform:translateX(-3920px)}54.2%{transform:translateX(-4000px)}54.9%{transform:translateX(-4080px)}55.6%{transform:translateX(-4160px)}59%{transform:translateX(-4240px)}59.1%{transform:translateX(-4400px)}61.8%{transform:translateX(-4480px)}66.2%{transform:translateX(-4560px)}67%{transform:translateX(-4640px)}67.7%{transform:translateX(-4720px)}68.4%{transform:translateX(-4800px)}69.1%{transform:translateX(-4880px)}69.8%{transform:translateX(-4960px)}73.3%{transform:translateX(-5120px)}77.7%{transform:translateX(-5200px)}82.2%{transform:translateX(-5280px)}86.6%{transform:translateX(-5360px)}91.1%{transform:translateX(-5440px)}95.5%{transform:translateX(-5520px)}to{transform:translateX(-5600px)}}.a{fill:#282d35}.f{fill:#b9c0cb;white-space:pre}</style><g font-family="Monaco,Consolas,Menlo,'Bitstream Vera Sans Mono','Powerline Symbols',monospace" font-size="1.67"><defs><symbol id="1"><text y="1.67" class="f">$</text></symbol><symbol id="2"><text y="1.67" class="f">$</text><text x="2.004" y="1.67" class="f">l</text></symbol><symbol id="3"><text y="1.67" class="f">$</text><text x="2.004" y="1.67" class="f">ls</text></symbol><symbol id="4"><text y="1.67" class="f">$</text><text x="2.004" y="1.67" class="f">ls</text><text x="5.01" y="1.67" class="f">-</text></symbol><symbol id="5"><text y="1.67" class="f">$</text><text x="2.004" y="1.67" class="f">ls</text><text x="5.01" y="1.67" class="f">-l</text></symbol><symbol id="6"><text y="1.67" class="f">$</text><text x="2.004" y="1.67" class="f">ls</text><text x="5.01" y="1.67" class="f">-la</text></symbol><symbol id="7"><text y="1.67" class="f">total</text><text x="6.012" y="1.67" class="f">0</text></symbol><symbol id="8"><text y="1.67" class="f">$</text><text x="2.004" y="1.67" class="f">d</text></symbol><symbol id="9"><text y="1.67" class="f">$</text><text x="2.004" y="1.67" class="f">do</text></symbol><symbol id="10"><text y="1.67" class="f">$</text><text x="2.004" y="1.67" class="f">dot</text></symbol><symbol id="11"><text y="1.67" class="f">$</text><text x="2.004" y="1.67" class="f">dotg</text></symbol><symbol id="12"><text y="1.67" class="f">$</text><text x="2.004" y="1.67" class="f">dotgh</text></symbol><symbol id="13"><text y="1.67" class="f">$</text><text x="2.004" y="1.67" class="f">dotgh</text><text x="8.016" y="1.67" class="f">list</text></symbol><symbol id="14"><text y="1.67" class="f">Available</text><text x="10.02" y="1.67" class="f">templates:</text></symbol><symbol id="15"><text x="2.004" y="1.67" class="f">bicep-mslearn-mcp</text></symbol><symbol id="16"><text x="2.004" y="1.67" class="f">node-playwright-mcp</text></symbol><symbol id="17"><text x="2.004" y="1.67" class="f">python</text></symbol><symbol id="18"><text y="1.67" class="f">3</text><text x="2.004" y="1.67" class="f">template(s)</text><text x="14.028" y="1.67" class="f">found</text></symbol><symbol id="19"><text y="1.67" class="f">$</text><text x="2.004" y="1.67" class="f">dotgh</text><text x="8.016" y="1.67" class="f">pull</text></symbol><symbol id="20"><text y="1.67" class="f">$</text><text x="2.004" y="1.67" class="f">dotgh</text><text x="8.016" y="1.67" class="f">pull</text><text x="13.026" y="1.67" class="f">bicep-mslearn-mcp</text></symbol><symbol id="21"><text y="1.67" class="f">Pulling</text><text x="8.016" y="1.67" class="f">template</text><text x="17.034" y="1.67" class="f">&apos;bicep-mslearn-mcp&apos;...</text></symbol><symbol id="22"><text x="2.004" y="1.67" class="f">✓</text><text x="4.008" y="1.67" class="f">AGENTS.md</text></symbol><symbol id="23"><text x="2.004" y="1.67" class="f">✓</text><text x="4.008" y="1.67" class="f">.github/copilot-instructions.md</text></symbol><symbol id="24"><text x="2.004" y="1.67" class="f">✓</text><text x="4.008" y="1.67" class="f">.github/instructions/bicep.instructions.md</text></symbol><symbol id="25"><text x="2.004" y="1.67" class="f">✓</text><text x="4.008" y="1.67" class="f">.github/prompts/spec.prompt.md</text></symbol><symbol id="26"><text x="2.004" y="1.67" class="f">✓</text><text x="4.008" y="1.67" class="f">.github/prompts/plan.prompt.md</text></symbol><symbol id="27"><text x="2.004" y="1.67" class="f">✓</text><text x="4.008" y="1.67" class="f">.github/prompts/refactor.prompt.md</text></symbol><symbol id="28"><text x="2.004" y="1.67" class="f">✓</text><text x="4.008" y="1.67" class="f">.vscode/mcp.json</text></symbol><symbol id="29"><text y="1.67" class="f">Template</text><text x="9.018" y="1.67" class="f">applied</text><text x="17.034" y="1.67" class="f">successfully!</text></symbol><symbol id="30"><text y="1.67" class="f">total</text><text x="6.012" y="1.67" class="f">16</text></symbol><symbol id="31"><text y="1.67" class="f">drwxr-xr-x</text><text x="12.024" y="1.67" class="f">3</text><text x="14.028" y="1.67" class="f">user</text><text x="19.038" y="1.67" class="f">user</text><text x="24.048" y="1.67" class="f">4096</text><text x="29.058" y="1.67" class="f">Dec</text><text x="34.068" y="1.67" class="f">1</text><text x="36.072" y="1.67" class="f">12:00</text><text x="42.084" y="1.67" class="f">.</text></symbol><symbol id="32"><text y="1.67" class="f">drwxr-xr-x</text><text x="11.022" y="1.67" class="f">10</text><text x="14.028" y="1.67" class="f">user</text><text x="19.038" y="1.67" class="f">user</text><text x="24.048" y="1.67" class="f">4096</text><text x="29.058" y="1.67" class="f">Dec</text><text x="34.068" y="1.67" class="f">1</text><text x="36.072" y="1.67" class="f">12:00</text><text x="42.084" y="1.67" class="f">..</text></symbol><symbol id="33"><text y="1.67" class="f">drwxr-xr-x</text><text x="12.024" y="1.67" class="f">4</text><text x="14.028" y="1.67" class="f">user</text><text x="19.038" y="1.67" class="f">user</text><text x="24.048" y="1.67" class="f">4096</text><text x="29.058" y="1.67" class="f">Dec</text><text x="34.068" y="1.67" class="f">1</text><text x="36.072" y="1.67" class="f">12:00</text><text x="42.084" y="1.67" class="f">.github</text></symbol><symbol id="34"><text y="1.67" class="f">drwxr-xr-x</text><text x="12.024" y="1.67" class="f">2</text><text x="14.028" y="1.67" class="f">user</text><text x="19.038" y="1.67" class="f">user</text><text x="24.048" y="1.67" class="f">4096</text><text x="29.058" y="1.67" class="f">Dec</text><text x="34.068" y="1.67" class="f">1</text><text x="36.072" y="1.67" class="f">12:00</text><text x="42.084" y="1.67" class="f">.vscode</text></symbol><symbol id="35"><text y="1.67" class="f">-rw-r--r--</text><text x="12.024" y="1.67" class="f">1</text><text x="14.028" y="1.67" class="f">user</text><text x="19.038" y="1.67" class="f">user</text><text x="25.05" y="1.67" class="f">512</text><text x="29.058" y="1.67" class="f">Dec</text><text x="34.068" y="1.67" class="f">1</text><text x="36.072" y="1.67" class="f">12:00</text><text x="42.084" y="1.67" class="f">AGENTS.md</text></symbol><symbol id="a"><path fill="transparent" d="M0 0h80v25H0z"/></symbol></defs><path class="a" d="M0 0h80v52.104H0z"/><g style="animation-duration:11.269335s;animation-iteration-count:infinite;animation-name:h;animation-timing-function:steps(1,end)"><svg width="5680"><svg><use xlink:href="#a"/></svg><svg x="80"><use xlink:href="#a"/></svg><svg x="160"><use xlink:href="#a"/><use xlink:href="#1"/></svg><svg x="240"><use xlink:href="#a"/><use xlink:href="#2"/></svg><svg x="320"><use xlink:href="#a"/><use xlink:href="#3"/></svg><svg x="400"><use xlink:href="#a"/><use xlink:href="#3"/></svg><svg x="480"><use xlink:href="#a"/><use xlink:href="#4"/></svg><svg x="560"><use xlink:href="#a"/><use xlink:href="#5"/></svg><svg x="640"><use xlink:href="#a"/><use xlink:href="#6"/></svg><svg x="720"><use xlink:href="#a"/><use xlink:href="#6"/><use xlink:href="#7" y="2.171"/></svg><svg x="800"><use xlink:href="#a"/><use xlink:href="#6"/><use xlink:href="#7" y="2.171"/><use xlink:href="#1" y="6.513"/></svg><svg x="880"><use xlink:href="#a"/><use xlink:href="#6"/><use xlink:href="#7" y="2.171"/><use xlink:href="#8" y="6.513"/></svg><svg x="960"><use xlink:href="#a"/><use xlink:href="#6"/><use xlink:href="#7" y="2.171"/><use xlink:href="#9" y="6.513"/></svg><svg x="1040"><use xlink:href="#a"/><use xlink:href="#6"/><use xlink:href="#7" y="2.171"/><use xlink:href="#10" y="6.513"/></svg><svg x="1120"><use xlink:href="#a"/><use xlink:href="#6"/><use xlink:href="#7" y="2.171"/><use xlink:href="#11" y="6.513"/></svg><svg x="1200"><use xlink:href="#a"/><use xlink:href="#6"/><use xlink:href="#7" y="2.171"/><use xlink:href="#12" y="6.513"/></svg><svg x="1280"><use xlink:href="#a"/><use xlink:href="#6"/><use xlink:href="#7" y="2.171"/><use xlink:href="#12" y="6.513"/></svg><svg x="1360"><use xlink:href="#a"/><use xlink:href="#6"/><use xlink:href="#7" y="2.171"/><text y="8.183" class="f">$</text><text x="2.004" y="8.183" class="f">dotgh</text><text x="8.016" y="8.183" class="f">l</text></svg><svg x="1440"><use xlink:href="#a"/><use xlink:href="#6"/><use xlink:href="#7" y="2.171"/><text y="8.183" class="f">$</text><text x="2.004" y="8.183" class="f">dotgh</text><text x="8.016" y="8.183" class="f">li</text></svg><svg x="1520"><use xlink:href="#a"/><use xlink:href="#6"/><use xlink:href="#7" y="2.171"/><text y="8.183" class="f">$</text><text x="2.004" y="8.183" class="f">dotgh</text><text x="8.016" y="8.183" class="f">lis</text></svg><svg x="1600"><use xlink:href="#a"/><use xlink:href="#6"/><use xlink:href="#7" y="2.171"/><use xlink:href="#13" y="6.513"/></svg><svg x="1680"><use xlink:href="#a"/><use xlink:href="#6"/><use xlink:href="#7" y="2.171"/><use xlink:href="#13" y="6.513"/></svg><svg x="1760"><use xlink:href="#a"/><use xlink:href="#6"/><use xlink:href="#7" y="2.171"/><use xlink:href="#13" y="6.513"/><use xlink:href="#14" y="8.684"/><use xlink:href="#15" y="10.855"/><use xlink:href="#16" y="13.026"/><use xlink:href="#17" y="15.197"/><use xlink:href="#18" y="19.539"/></svg><svg x="1840"><use xlink:href="#a"/><use xlink:href="#6"/><use xlink:href="#7" y="2.171"/><use xlink:href="#13" y="6.513"/><use xlink:href="#14" y="8.684"/><use xlink:href="#15" y="10.855"/><use xlink:href="#16" y="13.026"/><use xlink:href="#17" y="15.197"/><use xlink:href="#18" y="19.539"/></svg><svg x="1920"><use xlink:href="#a"/><use xlink:href="#6"/><use xlink:href="#7" y="2.171"/><use xlink:href="#13" y="6.513"/><use xlink:href="#14" y="8.684"/><use xlink:href="#15" y="10.855"/><use xlink:href="#16" y="13.026"/><use xlink:href="#17" y="15.197"/><use xlink:href="#18" y="19.539"/><use xlink:href="#1" y="26.052"/></svg><svg x="2000"><use xlink:href="#a"/><use xlink:href="#6"/><use xlink:href="#7" y="2.171"/><use xlink:href="#13" y="6.513"/><use xlink:href="#14" y="8.684"/><use xlink:href="#15" y="10.855"/><use xlink:href="#16" y="13.026"/><use xlink:href="#17" y="15.197"/><use xlink:href="#18" y="19.539"/><use xlink:href="#8" y="26.052"/></svg><svg x="2080"><use xlink:href="#a"/><use xlink:href="#6"/><use xlink:href="#7" y="2.171"/><use xlink:href="#13" y="6.513"/><use xlink:href="#14" y="8.684"/><use xlink:href="#15" y="10.855"/><use xlink:href="#16" y="13.026"/><use xlink:href="#17" y="15.197"/><use xlink:href="#18" y="19.539"/><use xlink:href="#9" y="26.052"/></svg><svg x="2160"><use xlink:href="#a"/><use xlink:href="#6"/><use xlink:href="#7" y="2.171"/><use xlink:href="#13" y="6.513"/><use xlink:href="#14" y="8.684"/><use xlink:href="#15" y="10.855"/><use xlink:href="#16" y="13.026"/><use xlink:href="#17" y="15.197"/><use xlink:href="#18" y="19.539"/><use xlink:href="#10" y="26.052"/></svg><svg x="2240"><use xlink:href="#a"/><use xlink:href="#6"/><use xlink:href="#7" y="2.171"/><use xlink:href="#13" y="6.513"/><use xlink:href="#14" y="8.684"/><use xlink:href="#15" y="10.855"/><use xlink:href="#16" y="13.026"/><use xlink:href="#17" y="15.197"/><use xlink:href="#18" y="19.539"/><use xlink:href="#11" y="26.052"/></svg><svg x="2320"><use xlink:href="#a"/><use xlink:href="#6"/><use xlink:href="#7" y="2.171"/><use xlink:href="#13" y="6.513"/><use xlink:href="#14" y="8.684"/><use xlink:href="#15" y="10.855"/><use xlink:href="#16" y="13.026"/><use xlink:href="#17" y="15.197"/><use xlink:href="#18" y="19.539"/><use xlink:href="#12" y="26.052"/></svg><svg x="2400"><use xlink:href="#a"/><use xlink:href="#6"/><use xlink:href="#7" y="2.171"/><use xlink:href="#13" y="6.513"/><use xlink:href="#14" y="8.684"/><use xlink:href="#15" y="10.855"/><use xlink:href="#16" y="13.026"/><use xlink:href="#17" y="15.197"/><use xlink:href="#18" y="19.539"/><use xlink:href="#12" y="26.052"/></svg><svg x="2480"><use xlink:href="#a"/><use xlink:href="#6"/><use xlink:href="#7" y="2.171"/><use xlink:href="#13" y="6.513"/><use xlink:href="#14" y="8.684"/><use xlink:href="#15" y="10.855"/><use xlink:href="#16" y="13.026"/><use xlink:href="#17" y="15.197"/><use xlink:href="#18" y="19.539"/><text y="27.722" class="f">$</text><text x="2.004" y="27.722" class="f">dotgh</text><text x="8.016" y="27.722" class="f">p</text></svg><svg x="2560"><use xlink:href="#a"/><use xlink:href="#6"/><use xlink:href="#7" y="2.171"/><use xlink:href="#13" y="6.513"/><use xlink:href="#14" y="8.684"/><use xlink:href="#15" y="10.855"/><use xlink:href="#16" y="13.026"/><use xlink:href="#17" y="15.197"/><use xlink:href="#18" y="19.539"/><text y="27.722" class="f">$</text><text x="2.004" y="27.722" class="f">dotgh</text><text x="8.016" y="27.722" class="f">pu</text></svg><svg x="2640"><use xlink:href="#a"/><use xlink:href="#6"/><use xlink:href="#7" y="2.171"/><use xlink:href="#13" y="6.513"/><use xlink:href="#14" y="8.684"/><use xlink:href="#15" y="10.855"/><use xlink:href="#16" y="13.026"/><use xlink:href="#17" y="15.197"/><use xlink:href="#18" y="19.539"/><text y="27.722" class="f">$</text><text x="2.004" y="27.722" class="f">dotgh</text><text x="8.016" y="27.722" class="f">pul</text></svg><svg x="2720"><use xlink:href="#a"/><use xlink:href="#6"/><use xlink:href="#7" y="2.171"/><use xlink:href="#13" y="6.513"/><use xlink:href="#14" y="8.684"/><use xlink:href="#15" y="10.855"/><use xlink:href="#16" y="13.026"/><use xlink:href="#17" y="15.197"/><use xlink:href="#18" y="19.539"/><use xlink:href="#19" y="26.052"/></svg><svg x="2800"><use xlink:href="#a"/><use xlink:href="#6"/><use xlink:href="#7" y="2.171"/><use xlink:href="#13" y="6.513"/><use xlink:href="#14" y="8.684"/><use xlink:href="#15" y="10.855"/><use xlink:href="#16" y="13.026"/><use xlink:href="#17" y="15.197"/><use xlink:href="#18" y="19.539"/><use xlink:href="#19" y="26.052"/></svg><svg x="2880"><use xlink:href="#a"/><use xlink:href="#6"/><use xlink:href="#7" y="2.171"/><use xlink:href="#13" y="6.513"/><use xlink:href="#14" y="8.684"/><use xlink:href="#15" y="10.855"/><use xlink:href="#16" y="13.026"/><use xlink:href="#17" y="15.197"/><use xlink:href="#18" y="19.539"/><text y="27.722" class="f">$</text><text x="2.004" y="27.722" class="f">dotgh</text><text x="8.016" y="27.722" class="f">pull</text><text x="13.026" y="27.722" class="f">b</text></svg><svg x="2960"><use xlink:href="#a"/><use xlink:href="#6"/><use xlink:href="#7" y="2.171"/><use xlink:href="#13" y="6.513"/><use xlink:href="#14" y="8.684"/><use xlink:href="#15" y="10.855"/><use xlink:href="#16" y="13.026"/><use xlink:href="#17" y="15.197"/><use xlink:href="#18" y="19.539"/><text y="27.722" class="f">$</text><text x="2.004" y="27.722" class="f">dotgh</text><text x="8.016" y="27.722" class="f">pull</text><text x="13.026" y="27.722" class="f">bi</text></svg><svg x="3040"><use xlink:href="#a"/><use xlink:href="#6"/><use xlink:href="#7" y="2.171"/><use xlink:href="#13" y="6.513"/><use xlink:href="#14" y="8.684"/><use xlink:href="#15" y="10.855"/><use xlink:href="#16" y="13.026"/><use xlink:href="#17" y="15.197"/><use xlink:href="#18" y="19.539"/><text y="27.722" class="f">$</text><text x="2.004" y="27.722" class="f">dotgh</text><text x="8.016" y="27.722" class="f">pull</text><text x="13.026" y="27.722" class="f">bic</text></svg><svg x="3120"><use xlink:href="#a"/><use xlink:href="#6"/><use xlink:href="#7" y="2.171"/><use xlink:href="#13" y="6.513"/><use xlink:href="#14" y="8.684"/><use xlink:href="#15" y="10.855"/><use xlink:href="#16" y="13.026"/><use xlink:href="#17" y="15.197"/><use xlink:href="#18" y="19.539"/><text y="27.722" class="f">$</text><text x="2.004" y="27.722" class="f">dotgh</text><text x="8.016" y="27.722" class="f">pull</text><text x="13.026" y="27.722" class="f">bice</text></svg><svg x="3200"><use xlink:href="#a"/><use xlink:href="#6"/><use xlink:href="#7" y="2.171"/><use xlink:href="#13" y="6.513"/><use xlink:href="#14" y="8.684"/><use xlink:href="#15" y="10.855"/><use xlink:href="#16" y="13.026"/><use xlink:href="#17" y="15.197"/><use xlink:href="#18" y="19.539"/><text y="27.722" class="f">$</text><text x="2.004" y="27.722" class="f">dotgh</text><text x="8.016" y="27.722" class="f">pull</text><text x="13.026" y="27.722" class="f">bicep</text></svg><svg x="3280"><use xlink:href="#a"/><use xlink:href="#6"/><use xlink:href="#7" y="2.171"/><use xlink:href="#13" y="6.513"/><use xlink:href="#14" y="8.684"/><use xlink:href="#15" y="10.855"/><use xlink:href="#16" y="13.026"/><use xlink:href="#17" y="15.197"/><use xlink:href="#18" y="19.539"/><text y="27.722" class="f">$</text><text x="2.004" y="27.722" class="f">dotgh</text><text x="8.016" y="27.722" class="f">pull</text><text x="13.026" y="27.722" class="f">bicep-</text></svg><svg x="3360"><use xlink:href="#a"/><use xlink:href="#6"/><use xlink:href="#7" y="2.171"/><use xlink:href="#13" y="6.513"/><use xlink:href="#14" y="8.684"/><use xlink:href="#15" y="10.855"/><use xlink:href="#16" y="13.026"/><use xlink:href="#17" y="15.197"/><use xlink:href="#18" y="19.539"/><text y="27.722" class="f">$</text><text x="2.004" y="27.722" class="f">dotgh</text><text x="8.016" y="27.722" class="f">pull</text><text x="13.026" y="27.722" class="f">bicep-m</text></svg><svg x="3440"><use xlink:href="#a"/><use xlink:href="#6"/><use xlink:href="#7" y="2.171"/><use xlink:href="#13" y="6.513"/><use xlink:href="#14" y="8.684"/><use xlink:href="#15" y="10.855"/><use xlink:href="#16" y="13.026"/><use xlink:href="#17" y="15.197"/><use xlink:href="#18" y="19.539"/><text y="27.722" class="f">$</text><text x="2.004" y="27.722" class="f">dotgh</text><text x="8.016" y="27.722" class="f">pull</text><text x="13.026" y="27.722" class="f">bicep-ms</text></svg><svg x="3520"><use xlink:href="#a"/><use xlink:href="#6"/><use xlink:href="#7" y="2.171"/><use xlink:href="#13" y="6.513"/><use xlink:href="#14" y="8.684"/><use xlink:href="#15" y="10.855"/><use xlink:href="#16" y="13.026"/><use xlink:href="#17" y="15.197"/><use xlink:href="#18" y="19.539"/><text y="27.722" class="f">$</text><text x="2.004" y="27.722" class="f">dotgh</text><text x="8.016" y="27.722" class="f">pull</text><text x="13.026" y="27.722" class="f">bicep-msl</text></svg><svg x="3600"><use xlink:href="#a"/><use xlink:href="#6"/><use xlink:href="#7" y="2.171"/><use xlink:href="#13" y="6.513"/><use xlink:href="#14" y="8.684"/><use xlink:href="#15" y="10.855"/><use xlink:href="#16" y="13.026"/><use xlink:href="#17" y="15.197"/><use xlink:href="#18" y="19.539"/><text y="27.722" class="f">$</text><text x="2.004" y="27.722" class="f">dotgh</text><text x="8.016" y="27.722" class="f">pull</text><text x="13.026" y="27.722" class="f">bicep-msle</text></svg><svg x="3680"><use xlink:href="#a"/><use xlink:href="#6"/><use xlink:href="#7" y="2.171"/><use xlink:href="#13" y="6.513"/><use xlink:href="#14" y="8.684"/><use xlink:href="#15" y="10.855"/><use xlink:href="#16" y="13.026"/><use xlink:href="#17" y="15.197"/><use xlink:href="#18" y="19.539"/><text y="27.722" class="f">$</text><text x="2.004" y="27.722" class="f">dotgh</text><text x="8.016" y="27.722" class="f">pull</text><text x="13.026" y="27.722" class="f">bicep-mslea</text></svg><svg x="3760"><use xlink:href="#a"/><use xlink:href="#6"/><use xlink:href="#7" y="2.171"/><use xlink:href="#13" y="6.513"/><use xlink:href="#14" y="8.684"/><use xlink:href="#15" y="10.855"/><use xlink:href="#16" y="13.026"/><use xlink:href="#17" y="15.197"/><use xlink:href="#18" y="19.539"/><text y="27.722" class="f">$</text><text x="2.004" y="27.722" class="f">dotgh</text><text x="8.016" y="27.722" class="f">pull</text><text x="13.026" y="27.722" class="f">bicep-mslear</text></svg><svg x="3840"><use xlink:href="#a"/><use xlink:href="#6"/><use xlink:href="#7" y="2.171"/><use xlink:href="#13" y="6.513"/><use xlink:href="#14" y="8.684"/><use xlink:href="#15" y="10.855"/><use xlink:href="#16" y="13.026"/><use xlink:href="#17" y="15.197"/><use xlink:href="#18" y="19.539"/><text y="27.722" class="f">$</text><text x="2.004" y="27.722" class="f">dotgh</text><text x="8.016" y="27.722" class="f">pull</text><text x="13.026" y="27.722" class="f">bicep-mslearn</text></svg><svg x="3920"><use xlink:href="#a"/><use xlink:href="#6"/><use xlink:href="#7" y="2.171"/><use xlink:href="#13" y="6.513"/><use xlink:href="#14" y="8.684"/><use xlink:href="#15" y="10.855"/><use xlink:href="#16" y="13.026"/><use xlink:href="#17" y="15.197"/><use xlink:href="#18" y="19.539"/><text y="27.722" class="f">$</text><text x="2.004" y="27.722" class="f">dotgh</text><text x="8.016" y="27.722" class="f">pull</text><text x="13.026" y="27.722" class="f">bicep-mslearn-</text></svg><svg x="4000"><use xlink:href="#a"/><use xlink:href="#6"/><use xlink:href="#7" y="2.171"/><use xlink:href="#13" y="6.513"/><use xlink:href="#14" y="8.684"/><use xlink:href="#15" y="10.855"/><use xlink:href="#16" y="13.026"/><use xlink:href="#17" y="15.197"/><use xlink:href="#18" y="19.539"/><text y="27.722" class="f">$</text><text x="2.004" y="27.722" class="f">dotgh</text><text x="8.016" y="27.722" class="f">pull</text><text x="13.026" y="27.722" class="f">bicep-mslearn-m</text></svg><svg x="4080"><use xlink:href="#a"/><use xlink:href="#6"/><use xlink:href="#7" y="2.171"/><use xlink:href="#13" y="6.513"/><use xlink:href="#14" y="8.684"/><use xlink:href="#15" y="10.855"/><use xlink:href="#16" y="13.026"/><use xlink:href="#17" y="15.197"/><use xlink:href="#18" y="19.539"/><text y="27.722" class="f">$</text><text x="2.004" y="27.722" class="f">dotgh</text><text x="8.016" y="27.722" class="f">pull</text><text x="13.026" y="27.722" class="f">bicep-mslearn-mc</text></svg><svg x="4160"><use xlink:href="#a"/><use xlink:href="#6"/><use xlink:href="#7" y="2.171"/><use xlink:href="#13" y="6.513"/><use xlink:href="#14" y="8.684"/><use xlink:href="#15" y="10.855"/><use xlink:href="#16" y="13.026"/><use xlink:href="#17" y="15.197"/><use xlink:href="#18" y="19.539"/><use xlink:href="#20" y="26.052"/></svg><svg x="4240"><use xlink:href="#a"/><use xlink:href="#6"/><use xlink:href="#7" y="2.171"/><use xlink:href="#13" y="6.513"/><use xlink:href="#14" y="8.684"/><use xlink:href="#15" y="10.855"/><use xlink:href="#16" y="13.026"/><use xlink:href="#17" y="15.197"/><use xlink:href="#18" y="19.539"/><use xlink:href="#20" y="26.052"/></svg><svg x="4320"><use xlink:href="#a"/><use xlink:href="#6"/><use xlink:href="#7" y="2.171"/><use xlink:href="#13" y="6.513"/><use xlink:href="#14" y="8.684"/><use xlink:href="#15" y="10.855"/><use xlink:href="#16" y="13.026"/><use xlink:href="#17" y="15.197"/><use xlink:href="#18" y="19.539"/><use xlink:href="#20" y="26.052"/><use xlink:href="#21" y="28.223"/><use xlink:href="#22" y="30.394"/><use xlink:href="#23" y="32.565"/><use xlink:href="#24" y="34.736"/><use xlink:href="#25" y="36.907"/></svg><svg x="4400"><use xlink:href="#a"/><use xlink:href="#6"/><use xlink:href="#7" y="2.171"/><use xlink:href="#13" y="6.513"/><use xlink:href="#14" y="8.684"/><use xlink:href="#15" y="10.855"/><use xlink:href="#16" y="13.026"/><use xlink:href="#17" y="15.197"/><use xlink:href="#18" y="19.539"/><use xlink:href="#20" y="26.052"/><use xlink:href="#21" y="28.223"/><use xlink:href="#22" y="30.394"/><use xlink:href="#23" y="32.565"/><use xlink:href="#24" y="34.736"/><use xlink:href="#25" y="36.907"/><use xlink:href="#26" y="39.078"/><use xlink:href="#27" y="41.249"/><use xlink:href="#28" y="43.42"/><use xlink:href="#29" y="47.762"/></svg><svg x="4480"><use xlink:href="#a"/><use xlink:href="#7"/><use xlink:href="#13" y="4.342"/><use xlink:href="#14" y="6.513"/><use xlink:href="#15" y="8.684"/><use xlink:href="#16" y="10.855"/><use xlink:href="#17" y="13.026"/><use xlink:href="#18" y="17.368"/><use xlink:href="#20" y="23.881"/><use xlink:href="#21" y="26.052"/><use xlink:href="#22" y="28.223"/><use xlink:href="#23" y="30.394"/><use xlink:href="#24" y="32.565"/><use xlink:href="#25" y="34.736"/><use xlink:href="#26" y="36.907"/><use xlink:href="#27" y="39.078"/><use xlink:href="#28" y="41.249"/><use xlink:href="#29" y="45.591"/><use xlink:href="#1" y="52.104"/></svg><svg x="4560"><use xlink:href="#a"/><use xlink:href="#7"/><use xlink:href="#13" y="4.342"/><use xlink:href="#14" y="6.513"/><use xlink:href="#15" y="8.684"/><use xlink:href="#16" y="10.855"/><use xlink:href="#17" y="13.026"/><use xlink:href="#18" y="17.368"/><use xlink:href="#20" y="23.881"/><use xlink:href="#21" y="26.052"/><use xlink:href="#22" y="28.223"/><use xlink:href="#23" y="30.394"/><use xlink:href="#24" y="32.565"/><use xlink:href="#25" y="34.736"/><use xlink:href="#26" y="36.907"/><use xlink:href="#27" y="39.078"/><use xlink:href="#28" y="41.249"/><use xlink:href="#29" y="45.591"/><use xlink:href="#2" y="52.104"/></svg><svg x="4640"><use xlink:href="#a"/><use xlink:href="#7"/><use xlink:href="#13" y="4.342"/><use xlink:href="#14" y="6.513"/><use xlink:href="#15" y="8.684"/><use xlink:href="#16" y="10.855"/><use xlink:href="#17" y="13.026"/><use xlink:href="#18" y="17.368"/><use xlink:href="#20" y="23.881"/><use xlink:href="#21" y="26.052"/><use xlink:href="#22" y="28.223"/><use xlink:href="#23" y="30.394"/><use xlink:href="#24" y="32.565"/><use xlink:href="#25" y="34.736"/><use xlink:href="#26" y="36.907"/><use xlink:href="#27" y="39.078"/><use xlink:href="#28" y="41.249"/><use xlink:href="#29" y="45.591"/><use xlink:href="#3" y="52.104"/></svg><svg x="4720"><use xlink:href="#a"/><use xlink:href="#7"/><use xlink:href="#13" y="4.342"/><use xlink:href="#14" y="6.513"/><use xlink:href="#15" y="8.684"/><use xlink:href="#16" y="10.855"/><use xlink:href="#17" y="13.026"/><use xlink:href="#18" y="17.368"/><use xlink:href="#20" y="23.881"/><use xlink:href="#21" y="26.052"/><use xlink:href="#22" y="28.223"/><use xlink:href="#23" y="30.394"/><use xlink:href="#24" y="32.565"/><use xlink:href="#25" y="34.736"/><use xlink:href="#26" y="36.907"/><use xlink:href="#27" y="39.078"/><use xlink:href="#28" y="41.249"/><use xlink:href="#29" y="45.591"/><use xlink:href="#3" y="52.104"/></svg><svg x="4800"><use xlink:href="#a"/><use xlink:href="#7"/><use xlink:href="#13" y="4.342"/><use xlink:href="#14" y="6.513"/><use xlink:href="#15" y="8.684"/><use xlink:href="#16" y="10.855"/><use xlink:href="#17" y="13.026"/><use xlink:href="#18" y="17.368"/><use xlink:href="#20" y="23.881"/><use xlink:href="#21" y="26.052"/><use xlink:href="#22" y="28.223"/><use xlink:href="#23" y="30.394"/><use xlink:href="#24" y="32.565"/><use xlink:href="#25" y="34.736"/><use xlink:href="#26" y="36.907"/><use xlink:href="#27" y="39.078"/><use xlink:href="#28" y="41.249"/><use xlink:href="#29" y="45.591"/><use xlink:href="#4" y="52.104"/></svg><svg x="4880"><use xlink:href="#a"/><use xlink:href="#7"/><use xlink:href="#13" y="4.342"/><use xlink:href="#14" y="6.513"/><use xlink:href="#15" y="8.684"/><use xlink:href="#16" y="10.855"/><use xlink:href="#17" y="13.026"/><use xlink:href="#18" y="17.368"/><use xlink:href="#20" y="23.881"/><use xlink:href="#21" y="26.052"/><use xlink:href="#22" y="28.223"/><use xlink:href="#23" y="30.394"/><use xlink:href="#24" y="32.565"/><use xlink:href="#25" y="34.736"/><use xlink:href="#26" y="36.907"/><use xlink:href="#27" y="39.078"/><use xlink:href="#28" y="41.249"/><use xlink:href="#29" y="45.591"/><use xlink:href="#5" y="52.104"/></svg><svg x="4960"><use xlink:href="#a"/><use xlink:href="#7"/><use xlink:href="#13" y="4.342"/><use xlink:href="#14" y="6.513"/><use xlink:href="#15" y="8.684"/><use xlink:href="#16" y="10.855"/><use xlink:href="#17" y="13.026"/><use xlink:href="#18" y="17.368"/><use xlink:href="#20" y="23.881"/><use xlink:href="#21" y="26.052"/><use xlink:href="#22" y="28.223"/><use xlink:href="#23" y="30.394"/><use xlink:href="#24" y="32.565"/><use xlink:href="#25" y="34.736"/><use xlink:href="#26" y="36.907"/><use xlink:href="#27" y="39.078"/><use xlink:href="#28" y="41.249"/><use xlink:href="#29" y="45.591"/><use xlink:href="#6" y="52.104"/></svg><svg x="5040"><use xlink:href="#a"/><use xlink:href="#14"/><use xlink:href="#15" y="2.171"/><use xlink:href="#16" y="4.342"/><use xlink:href="#17" y="6.513"/><use xlink:href="#18" y="10.855"/><use xlink:href="#20" y="17.368"/><use xlink:href="#21" y="19.539"/><use xlink:href="#22" y="21.71"/><use xlink:href="#23" y="23.881"/><use xlink:href="#24" y="26.052"/><use xlink:href="#25" y="28.223"/><use xlink:href="#26" y="30.394"/><use xlink:href="#27" y="32.565"/><use xlink:href="#28" y="34.736"/><use xlink:href="#29" y="39.078"/><use xlink:href="#6" y="45.591"/><use xlink:href="#30" y="47.762"/><use xlink:href="#31" y="49.933"/></svg><svg x="5120"><use xlink:href="#a"/><use xlink:href="#18"/><use xlink:href="#20" y="6.513"/><use xlink:href="#21" y="8.684"/><use xlink:href="#22" y="10.855"/><use xlink:href="#23" y="13.026"/><use xlink:href="#24" y="15.197"/><use xlink:href="#25" y="17.368"/><use xlink:href="#26" y="19.539"/><use xlink:href="#27" y="21.71"/><use xlink:href="#28" y="23.881"/><use xlink:href="#29" y="28.223"/><use xlink:href="#6" y="34.736"/><use xlink:href="#30" y="36.907"/><use xlink:href="#31" y="39.078"/><use xlink:href="#32" y="41.249"/><use xlink:href="#33" y="43.42"/><use xlink:href="#34" y="45.591"/><use xlink:href="#35" y="47.762"/><use xlink:href="#1" y="52.104"/></svg><svg x="5200"><use xlink:href="#a"/><use xlink:href="#18"/><use xlink:href="#20" y="6.513"/><use xlink:href="#21" y="8.684"/><use xlink:href="#22" y="10.855"/><use xlink:href="#23" y="13.026"/><use xlink:href="#24" y="15.197"/><use xlink:href="#25" y="17.368"/><use xlink:href="#26" y="19.539"/><use xlink:href="#27" y="21.71"/><use xlink:href="#28" y="23.881"/><use xlink:href="#29" y="28.223"/><use xlink:href="#6" y="34.736"/><use xlink:href="#30" y="36.907"/><use xlink:href="#31" y="39.078"/><use xlink:href="#32" y="41.249"/><use xlink:href="#33" y="43.42"/><use xlink:href="#34" y="45.591"/><use xlink:href="#35" y="47.762"/><use xlink:href="#1" y="52.104"/></svg><svg x="5280"><use xlink:href="#a"/><use xlink:href="#18"/><use xlink:href="#20" y="6.513"/><use xlink:href="#21" y="8.684"/><use xlink:href="#22" y="10.855"/><use xlink:href="#23" y="13.026"/><use xlink:href="#24" y="15.197"/><use xlink:href="#25" y="17.368"/><use xlink:href="#26" y="19.539"/><use xlink:href="#27" y="21.71"/><use xlink:href="#28" y="23.881"/><use xlink:href="#29" y="28.223"/><use xlink:href="#6" y="34.736"/><use xlink:href="#30" y="36.907"/><use xlink:href="#31" y="39.078"/><use xlink:href="#32" y="41.249"/><use xlink:href="#33" y="43.42"/><use xlink:href="#34" y="45.591"/><use xlink:href="#35" y="47.762"/><use xlink:href="#1" y="52.104"/></svg><svg x="5360"><use xlink:href="#a"/><use xlink:href="#18"/><use xlink:href="#20" y="6.513"/><use xlink:href="#21" y="8.684"/><use xlink:href="#22" y="10.855"/><use xlink:href="#23" y="13.026"/><use xlink:href="#24" y="15.197"/><use xlink:href="#25" y="17.368"/><use xlink:href="#26" y="19.539"/><use xlink:href="#27" y="21.71"/><use xlink:href="#28" y="23.881"/><use xlink:href="#29" y="28.223"/><use xlink:href="#6" y="34.736"/><use xlink:href="#30" y="36.907"/><use xlink:href="#31" y="39.078"/><use xlink:href="#32" y="41.249"/><use xlink:href="#33" y="43.42"/><use xlink:href="#34" y="45.591"/><use xlink:href="#35" y="47.762"/><use xlink:href="#1" y="52.104"/></svg><svg x="5440"><use xlink:href="#a"/><use xlink:href="#18"/><use xlink:href="#20" y="6.513"/><use xlink:href="#21" y="8.684"/><use xlink:href="#22" y="10.855"/><use xlink:href="#23" y="13.026"/><use xlink:href="#24" y="15.197"/><use xlink:href="#25" y="17.368"/><use xlink:href="#26" y="19.539"/><use xlink:href="#27" y="21.71"/><use xlink:href="#28" y="23.881"/><use xlink:href="#29" y="28.223"/><use xlink:href="#6" y="34.736"/><use xlink:href="#30" y="36.907"/><use xlink:href="#31" y="39.078"/><use xlink:href="#32" y="41.249"/><use xlink:href="#33" y="43.42"/><use xlink:href="#34" y="45.591"/><use xlink:href="#35" y="47.762"/><use xlink:href="#1" y="52.104"/></svg><svg x="5520"><use xlink:href="#a"/><use xlink:href="#18"/><use xlink:href="#20" y="6.513"/><use xlink:href="#21" y="8.684"/><use xlink:href="#22" y="10.855"/><use xlink:href="#23" y="13.026"/><use xlink:href="#24" y="15.197"/><use xlink:href="#25" y="17.368"/><use xlink:href="#26" y="19.539"/><use xlink:href="#27" y="21.71"/><use xlink:href="#28" y="23.881"/><use xlink:href="#29" y="28.223"/><use xlink:href="#6" y="34.736"/><use xlink:href="#30" y="36.907"/><use xlink:href="#31" y="39.078"/><use xlink:href="#32" y="41.249"/><use xlink:href="#33" y="43.42"/><use xlink:href="#34" y="45.591"/><use xlink:href="#35" y="47.762"/><use xlink:href="#1" y="52.104"/></svg><svg x="5600"><use xlink:href="#a"/><use xlink:href="#18"/><use xlink:href="#20" y="6.513"/><use xlink:href="#21" y="8.684"/><use xlink:href="#22" y="10.855"/><use xlink:href="#23" y="13.026"/><use xlink:href="#24" y="15.197"/><use xlink:href="#25" y="17.368"/><use xlink:href="#26" y="19.539"/><use xlink:href="#27" y="21.71"/><use xlink:href="#28" y="23.881"/><use xlink:href="#29" y="28.223"/><use xlink:href="#6" y="34.736"/><use xlink:href="#30" y="36.907"/><use xlink:href="#31" y="39.078"/><use xlink:href="#32" y="41.249"/><use xlink:href="#33" y="43.42"/><use xlink:href="#34" y="45.591"/><use xlink:href="#35" y="47.762"/><use xlink:href="#1" y="52.104"/></svg></svg></g></g></svg></svg>